<?xml version="1.0" encoding="UTF-8"?>
<svg version="1.1" xmlns="http://www.w3.org/2000/svg" width="3840" height="2160">
<path d="M0 0 C1251.36 0 2502.72 0 3792 0 C3792 546.48 3792 1092.96 3792 1656 C2540.64 1656 1289.28 1656 0 1656 C0 1109.52 0 563.04 0 0 Z " fill="#0075B1" transform="translate(24,252)"/>
<path d="M0 0 C64.35 0 128.7 0 195 0 C194.41972944 10.44487001 193.82031991 20.69819148 192.6875 31.0625 C191.29433032 44.38068294 190.1854941 57.71408692 189.125 71.0625 C187.73242057 88.55732173 186.1824321 106.03072005 184.5 123.5 C182.86445829 140.49070373 181.35015279 157.48422515 180 174.5 C178.64984642 191.5157848 177.13501045 208.50924022 175.5 225.5 C173.5336516 245.94197835 171.77901143 266.39380863 170.13969421 286.86439514 C170.02220573 288.33144142 170.02220573 288.33144142 169.90234375 289.828125 C169.82542801 290.78943832 169.74851227 291.75075165 169.66926575 292.74119568 C168.64501272 305.49251279 167.50345409 318.23315509 166.35888672 330.97412109 C165.98287255 335.17609545 165.61789802 339.37900101 165.25390625 343.58203125 C164.11074542 356.75249031 162.92514423 369.91252589 161.5625 383.0625 C160.11682673 397.09274955 158.99480134 411.14399486 157.87478638 425.20339966 C156.56056586 441.65054103 155.08171121 458.07654023 153.5 474.5 C151.76874069 492.485059 150.19109014 510.47463662 148.76327515 528.48623657 C147.25344861 547.48215086 145.49687075 566.45086145 143.66210938 585.41796875 C143.09586832 591.27753439 142.54060918 597.13801335 142 603 C141.88148682 604.28447021 141.76297363 605.56894043 141.64086914 606.89233398 C140.87353869 616.24062303 140.81385722 625.58266338 140.81469727 634.95678711 C140.81251729 637.66601445 140.79430485 640.37482887 140.77539062 643.08398438 C140.73745468 654.84933556 141.50740484 666.33281171 143 678 C143.12576416 679.02891357 143.25152832 680.05782715 143.38110352 681.11791992 C144.7711136 692.01267702 146.85536668 702.46607623 150 713 C150.30808594 714.08410156 150.61617187 715.16820312 150.93359375 716.28515625 C157.38430005 738.31391676 167.41145342 758.26539296 182 776 C182.82242188 777.00675781 183.64484375 778.01351562 184.4921875 779.05078125 C211.34789718 810.17698903 252.733259 823.53297212 292.50537109 826.77734375 C331.57733134 829.26676863 372.9438709 824.38881772 408 806 C409.39506037 805.30313795 410.79093386 804.60790195 412.1875 803.9140625 C439.62418005 790.08051976 462.19696036 768.86773791 480 744 C480.63679687 743.113125 481.27359375 742.22625 481.9296875 741.3125 C487.42773655 733.33605578 491.71747378 724.63786301 496.0625 716 C496.53695557 715.05821899 496.53695557 715.05821899 497.02099609 714.09741211 C498.03003677 712.07234151 499.01897608 710.03879383 500 708 C500.39695068 707.17902832 500.79390137 706.35805664 501.20288086 705.51220703 C504.51748491 698.46363919 507.08288851 691.29458215 509.4375 683.875 C509.82437988 682.65941406 510.21125977 681.44382812 510.60986328 680.19140625 C513.11121466 672.18541913 515.38768165 664.14884214 517.375 656 C517.71422485 654.62690674 517.71422485 654.62690674 518.06030273 653.22607422 C522.54288252 634.01405684 524.06015562 614.30829906 525.80825424 594.70462418 C526.06786616 591.80432032 526.33206573 588.90444094 526.59615993 586.00454235 C528.17427239 568.66613642 529.67102027 551.32234284 531.02734375 533.96508789 C531.82939374 523.75274711 532.81873161 513.56700234 533.87573242 503.37817383 C534.89331889 493.42866069 535.7159612 483.46995171 536.5 473.5 C537.47430887 461.11054638 538.59201578 448.74880625 539.875 436.38671875 C540.8924978 426.43431841 541.71573651 416.47280885 542.5 406.5 C543.37929393 395.3187702 544.34242563 384.15672587 545.5 373 C546.64649172 361.92620363 547.61832972 350.84728422 548.5 339.75 C548.75248218 336.57941736 549.0050525 333.40884176 549.2578125 330.23828125 C549.35124435 329.06616844 549.35124435 329.06616844 549.44656372 327.87037659 C550.05825323 320.2233604 550.70309225 312.5794806 551.375 304.9375 C551.43398468 304.26628113 551.49296936 303.59506226 551.55374146 302.90350342 C552.66400851 290.33307875 553.88942353 277.77418834 555.11242676 265.21432495 C555.27333801 263.5613591 555.27333801 263.5613591 555.4375 261.875 C555.5449353 260.771492 555.65237061 259.66798401 555.76306152 258.53103638 C557.33716287 242.32159658 558.79267819 226.10607883 560.125 209.875 C560.20758057 208.86947083 560.29016113 207.86394165 560.37524414 206.82794189 C560.69744292 202.90021176 561.01903376 198.97243249 561.33981323 195.04458618 C563.28326154 171.27147767 565.51927478 147.53064644 567.83071899 123.79083252 C569.2853573 108.82362941 570.63039337 93.85465982 571.80175781 78.86273193 C572.58647908 68.83260221 573.47602827 58.82173567 574.5 48.8125 C576.14624684 32.55581249 577.56383015 16.27659158 579 0 C643.35 0 707.7 0 774 0 C772.83820307 17.42695388 771.65899673 34.74448366 769.94140625 52.10791016 C768.11964177 70.55889829 766.46349471 89.01732059 765 107.5 C763.56180473 125.63560935 761.92009352 143.74477718 760.17724609 161.85351562 C758.65242821 177.72643012 757.26129881 193.60403868 756 209.5 C754.56099613 227.63555188 752.92009499 245.74476189 751.17724609 263.85351562 C749.65242821 279.72643012 748.26129881 295.60403868 747 311.5 C745.56099613 329.63555188 743.92009499 347.74476189 742.17724609 365.85351562 C740.65242821 381.72643012 739.26129881 397.60403868 738 413.5 C736.56099613 431.63555188 734.92009499 449.74476189 733.17724609 467.85351562 C731.65242779 483.72643455 730.26150396 499.60405226 729 515.5 C727.1843549 538.36850451 725.05467124 561.20257786 722.85385132 584.03691101 C722.18956185 590.94950066 721.55737846 597.86455169 720.9375 604.78125 C712.67049727 696.57164157 684.86985302 786.29906793 622 870 C620.88044922 871.40958984 620.88044922 871.40958984 619.73828125 872.84765625 C615.12435421 878.57279085 610.29791119 884.05743915 605.31640625 889.46484375 C603.43270677 891.52643053 601.61363292 893.61720066 599.8125 895.75 C591.64373525 905.14407946 582.55438987 914.02589895 573 922 C571.61167969 923.20462891 571.61167969 923.20462891 570.1953125 924.43359375 C549.97632567 941.92823822 527.8114289 956.79103459 504.40478516 969.67431641 C502.22367301 970.87669599 500.05461235 972.09824121 497.88671875 973.32421875 C479.48099243 983.5731726 459.83049307 991.30547067 439.875 997.9375 C439.21064941 998.15879578 438.54629883 998.38009155 437.86181641 998.60809326 C421.15947772 1004.13667515 404.438085 1008.5479416 387.125 1011.6875 C385.52591053 1011.98432041 383.92695169 1012.28184548 382.328125 1012.58007812 C377.88858144 1013.40470758 373.44558873 1014.20865226 369 1015 C367.89986572 1015.1959375 366.79973145 1015.391875 365.66625977 1015.59375 C296.63539428 1027.49934484 213.69454162 1023.33159504 149.55859375 993.171875 C147.1692406 992.07751478 144.76884251 991.11935706 142.3125 990.1875 C137.75683841 988.39284543 133.38223706 986.30150595 129 984.125 C128.35973877 983.80942139 127.71947754 983.49384277 127.05981445 983.16870117 C102.8209715 970.97434573 80.22086016 954.34155891 60.2890625 936.04296875 C57.96904299 933.92106808 57.96904299 933.92106808 55.2109375 931.86328125 C54.48132813 931.24839844 53.75171875 930.63351562 53 930 C53 929.34 53 928.68 53 928 C51.68 927.34 50.36 926.68 49 926 C49 925.34 49 924.68 49 924 C48.01 923.67 47.02 923.34 46 923 C44.4921875 921.50390625 44.4921875 921.50390625 42.875 919.5625 C40.27707766 916.4882919 37.6182925 913.50750518 34.875 910.5625 C19.25394702 893.19104041 6.40019499 873.33225924 -5 853 C-5.40428223 852.28328125 -5.80856445 851.5665625 -6.22509766 850.828125 C-24.10650673 818.84995704 -36.9888073 782.93991183 -44 747 C-44.22768066 745.85499023 -44.45536133 744.70998047 -44.68994141 743.53027344 C-48.32820244 725.09944311 -51.10353458 706.82863963 -52.125 688.0625 C-52.16669312 687.30731079 -52.20838623 686.55212158 -52.25134277 685.77404785 C-54.49862754 643.40937098 -53.53894217 600.97235862 -49.24682617 558.78271484 C-47.991171 546.36886881 -46.99406309 533.93718355 -46 521.5 C-44.93125598 508.15564463 -43.84370485 494.81992396 -42.5 481.5 C-41.0734173 467.35005245 -39.94123544 453.18112878 -38.80813599 439.00521851 C-37.64000744 424.42785162 -36.3607414 409.86712837 -34.9375 395.3125 C-33.58091918 381.43856273 -32.37833093 367.56295413 -31.32247925 353.66299438 C-30.29636583 340.20226315 -29.05132116 326.76963135 -27.73974609 313.33398438 C-26.52850435 300.89765674 -25.4461711 288.45922278 -24.5 276 C-23.41854585 261.75936409 -22.12729442 247.54789403 -20.73974609 233.33398438 C-19.52850379 220.89765092 -18.44641099 208.45920707 -17.5 196 C-16.43662128 182.01040731 -15.17354175 168.04945153 -13.80813599 154.08627319 C-12.37019741 139.33936269 -11.1180552 124.58211659 -9.9375 109.8125 C-8.79625863 95.53638163 -7.59085091 81.2781225 -6.14868164 67.02880859 C-4.67120013 52.16171362 -3.53040718 37.26475812 -2.35742188 22.37109375 C-2.2748111 21.33388687 -2.19220032 20.29667999 -2.10708618 19.2280426 C-1.95135008 17.27195077 -1.79772279 15.31568947 -1.64657593 13.35923767 C-1.57613068 12.47748367 -1.50568542 11.59572968 -1.43310547 10.68725586 C-1.37331512 9.92360214 -1.31352478 9.15994843 -1.25192261 8.37315369 C-0.9540184 5.5668455 -0.46394642 2.78367855 0 0 Z " fill="#FEFEFE" transform="translate(345,592)"/>
<path d="M0 0 C4.62 0 9.24 0 14 0 C19.54136917 14.73417035 24.68651555 29.59487234 29.79199219 44.48486328 C31.53514239 49.5571908 33.29714157 54.62286701 35.0625 59.6875 C37.90637888 67.85053889 40.73766009 76.01785339 43.5625 84.1875 C46.49440724 92.66464436 49.44100176 101.13639453 52.40869141 109.60107422 C55.61704244 118.75382263 58.79994735 127.91539713 61.98388672 137.07666016 C63.65510491 141.88472518 65.32761105 146.69234211 67 151.5 C67.66667298 153.41666447 68.33333964 155.33333114 69 157.25 C69.33 158.19875 69.66 159.1475 70 160.125 C103 255 136 349.875 362.00146484 999.62939453 C362.66309696 1001.53146555 363.32487895 1003.43348444 363.98681641 1005.33544922 C365.7317924 1010.34999542 367.47357396 1015.36562331 369.2109375 1020.3828125 C369.57316406 1021.42759766 369.93539062 1022.47238281 370.30859375 1023.54882812 C371.00226307 1025.54979732 371.69502064 1027.55108291 372.38671875 1029.55273438 C372.69996094 1030.45572266 373.01320313 1031.35871094 373.3359375 1032.2890625 C373.60970215 1033.08006348 373.8834668 1033.87106445 374.16552734 1034.68603516 C374.76360042 1036.34447184 375.41651046 1037.98352471 376.10400391 1039.60693359 C377 1042 377 1042 377 1045 C309.02 1045 241.04 1045 171 1045 C165.06 1024.87 159.12 1004.74 153 984 C149.2616188 971.33369767 149.2616188 971.33369767 145.52294922 958.66748047 C144.10192953 953.8529294 142.68179885 949.03811677 141.26220703 944.22314453 C140.5211787 941.70995509 139.78013086 939.19677139 139.0390625 936.68359375 C138.68876984 935.49562195 138.33847717 934.30765015 137.97756958 933.0836792 C136.13414075 926.83480318 134.28547735 920.58753408 132.42779541 914.34288025 C131.45755356 911.08089888 130.48994858 907.81813884 129.52270508 904.55526733 C128.89760306 902.45108513 128.26823127 900.34821327 127.63867188 898.24536133 C127.28095703 897.03775146 126.92324219 895.8301416 126.5546875 894.5859375 C126.25030762 893.5654834 125.94592773 892.5450293 125.63232422 891.49365234 C125 889 125 889 125 886 C1.25 886 -122.5 886 -250 886 C-250.66 887.98 -251.32 889.96 -252 892 C-253.07527608 894.41898202 -254.1735783 896.8090566 -255.31640625 899.1953125 C-255.64447266 899.88753906 -255.97253906 900.57976563 -256.31054688 901.29296875 C-257.39139607 903.57181595 -258.47698388 905.84837268 -259.5625 908.125 C-260.32775833 909.73664279 -261.09264449 911.34846234 -261.85717773 912.96044922 C-263.44629751 916.31026436 -265.03701615 919.65931302 -266.62890625 923.0078125 C-269.93479471 929.96445798 -273.2227561 936.92955427 -276.51000977 943.89501953 C-277.56948854 946.13980709 -278.62941723 948.38438173 -279.68945312 950.62890625 C-284.48815048 960.79065908 -289.27798438 970.95656306 -294.0625 981.125 C-294.38749481 981.81557495 -294.71248962 982.5061499 -295.04733276 983.21765137 C-298.45238992 990.45306705 -301.85515432 997.68954577 -305.25138855 1004.92910767 C-306.69464015 1008.00516507 -308.13900091 1011.08070105 -309.58346558 1014.15618896 C-310.26478751 1015.60762888 -310.9455751 1017.05931977 -311.62576294 1018.5112915 C-312.574661 1020.53681874 -313.52544092 1022.5614536 -314.4765625 1024.5859375 C-315.01361816 1025.7311084 -315.55067383 1026.8762793 -316.10400391 1028.05615234 C-318.67362668 1033.40120594 -321.34773459 1038.69546917 -324 1044 C-391.98 1044 -459.96 1044 -530 1044 C-529.07535548 1039.3767774 -527.90584209 1036.51896944 -525.75390625 1032.3984375 C-525.42716415 1031.76870529 -525.10042206 1031.13897308 -524.76377869 1030.49015808 C-523.70261893 1028.44861764 -522.6326674 1026.41183082 -521.5625 1024.375 C-520.82758948 1022.96504137 -520.09321705 1021.55480215 -519.359375 1020.14428711 C-515.03848891 1011.84915518 -510.6786087 1003.57434372 -506.30688477 995.3059082 C-502.41582946 987.93081864 -498.70010105 980.47221519 -495 973 C-490.08683409 963.08645222 -485.13911257 953.20340135 -479.9375 943.4375 C-476.6177257 937.19954739 -473.48505024 930.90470802 -470.5 924.5 C-466.39715116 915.70625134 -461.93431933 907.1387776 -457.36962891 898.57763672 C-450.05641045 884.81418566 -442.91441161 870.96764029 -436 857 C-431.06643192 847.04461432 -426.09604178 837.12078646 -420.875 827.3125 C-417.75278316 821.44343125 -414.78551474 815.53610278 -412 809.5 C-408.105771 801.07309571 -403.7933564 792.89768031 -399.43310547 784.70458984 C-391.76515006 770.23344674 -384.26464366 755.67747335 -377 741 C-375.378315 737.72751039 -373.75333976 734.45668357 -372.125 731.1875 C-371.70597412 730.34622559 -371.28694824 729.50495117 -370.85522461 728.63818359 C-367.94306785 722.81832377 -364.93281008 717.05692391 -361.875 711.3125 C-358.75278316 705.44343125 -355.78551474 699.53610278 -353 693.5 C-349.105771 685.07309571 -344.7933564 676.89768031 -340.43310547 668.70458984 C-332.76515006 654.23344674 -325.26464366 639.67747335 -318 625 C-316.378315 621.72751039 -314.75333976 618.45668357 -313.125 615.1875 C-312.70597412 614.34622559 -312.28694824 613.50495117 -311.85522461 612.63818359 C-308.94306785 606.81832377 -305.93281008 601.05692391 -302.875 595.3125 C-299.75278316 589.44343125 -296.78551474 583.53610278 -294 577.5 C-290.105771 569.07309571 -285.7933564 560.89768031 -281.43310547 552.70458984 C-273.76515006 538.23344674 -266.26464366 523.67747335 -259 509 C-257.378315 505.72751039 -255.75333976 502.45668357 -254.125 499.1875 C-253.70597412 498.34622559 -253.28694824 497.50495117 -252.85522461 496.63818359 C-249.94306785 490.81832377 -246.93281008 485.05692391 -243.875 479.3125 C-240.75278316 473.44343125 -237.78551474 467.53610278 -235 461.5 C-231.105771 453.07309571 -226.7933564 444.89768031 -222.43310547 436.70458984 C-214.76515006 422.23344674 -207.26464366 407.67747335 -200 393 C-198.378315 389.72751039 -196.75333976 386.45668357 -195.125 383.1875 C-194.70597412 382.34622559 -194.28694824 381.50495117 -193.85522461 380.63818359 C-190.94306785 374.81832377 -187.93281008 369.05692391 -184.875 363.3125 C-181.75278316 357.44343125 -178.78551474 351.53610278 -176 345.5 C-172.105771 337.07309571 -167.7933564 328.89768031 -163.43310547 320.70458984 C-155.76508289 306.23331997 -148.26733292 291.67623725 -141 277 C-135.30586781 265.51758069 -129.55625623 254.07663007 -123.5546875 242.75146484 C-119.97840636 235.99200965 -116.54394376 229.16902937 -113.1484375 222.31738281 C-106.72781813 209.36149015 -100.28058234 196.42940826 -93.50610352 183.65429688 C-89.54096742 176.16610265 -85.76106236 168.59217555 -82 161 C-76.30693955 149.52073202 -70.56010059 138.08200415 -64.55908203 126.76025391 C-60.57759719 119.23615065 -56.77729285 111.62810112 -53 104 C-48.08683409 94.08645222 -43.13911257 84.20340135 -37.9375 74.4375 C-34.6177257 68.19954739 -31.48505024 61.90470802 -28.5 55.5 C-24.4054135 46.72396023 -19.95200584 38.17395625 -15.39599609 29.63037109 C-12.73769679 24.62153642 -10.12108368 19.59087844 -7.5 14.5625 C-6.72499146 13.0779834 -6.72499146 13.0779834 -5.93432617 11.56347656 C-3.92983322 7.72078043 -1.93835167 3.87670334 0 0 Z " fill="#FEFEFE" transform="translate(3171,546)"/>
<path d="M0 0 C0.68202106 -0.00058914 1.36404213 -0.00117828 2.0667305 -0.00178528 C31.7740046 -0.01985212 60.74071564 1.33250552 89.9375 7.25 C92.35411543 7.72161676 94.77078533 8.1929545 97.1875 8.6640625 C109.42075131 11.08461264 121.58268563 13.54810706 133.44287109 17.43505859 C135.32287896 18.04921658 137.20669998 18.65172016 139.09228516 19.24853516 C158.14855731 25.28174405 176.621709 32.24230123 194.9375 40.25 C195.78086914 40.61834961 196.62423828 40.98669922 197.49316406 41.36621094 C243.30066654 61.61316654 243.30066654 61.61316654 255.9375 74.25 C255.9534588 77.14173543 255.88205605 79.98803553 255.75 82.875 C255.68498291 84.30658447 255.68498291 84.30658447 255.61865234 85.76708984 C255.0073516 97.20563662 253.73333875 108.57673062 252.52075195 119.96337891 C251.26943946 131.75293438 250.21057852 143.54499676 249.26918983 155.36291695 C248.43219532 165.8323265 247.45655968 176.27934424 246.35453224 186.72403145 C244.16490122 207.52296896 242.19871396 228.34151622 240.27270508 249.16625977 C239.83134729 253.93833077 239.38689811 258.71010828 238.94159412 263.48181248 C238.59129467 267.23866002 238.24246452 270.99564289 237.89407921 274.75266838 C237.73065454 276.51347658 237.56682243 278.27424701 237.40253639 280.03497505 C236.46436251 290.10063009 235.60437208 300.16204536 234.9375 310.25 C233.9475 310.25 232.9575 310.25 231.9375 310.25 C230.16961722 308.22739654 228.58481414 306.22181631 227 304.0625 C221.81331442 297.2225693 216.20054843 290.96079276 210.31152344 284.72558594 C208.30351703 282.56915546 206.37621685 280.34367596 204.4375 278.125 C195.30199495 267.97261647 184.79030091 259.4781535 173.9375 251.25 C173.3300293 250.78561523 172.72255859 250.32123047 172.09667969 249.84277344 C154.76019185 236.63271662 135.45395107 224.68348997 114.8671875 217.31640625 C112.04812641 216.29026801 109.35896666 215.10726613 106.625 213.875 C52.70268902 191.37198833 -17.11853823 189.17261885 -74.0625 198.25 C-75.20170898 198.42160645 -76.34091797 198.59321289 -77.51464844 198.77001953 C-94.69779424 201.39894217 -111.40640054 205.2963405 -128.0625 210.25 C-128.96484375 210.51506348 -129.8671875 210.78012695 -130.796875 211.05322266 C-167.39201073 221.97561066 -201.71308852 240.89510653 -231.0625 265.25 C-231.88959473 265.92482422 -231.88959473 265.92482422 -232.73339844 266.61328125 C-246.81981233 278.12894488 -259.88405222 290.88089746 -271.0625 305.25 C-272.49859702 306.95951291 -273.93615018 308.66780341 -275.375 310.375 C-320.70772801 366.01777552 -344.05684592 437.63594295 -352.4375 508.125 C-352.55667282 509.12614838 -352.55667282 509.12614838 -352.67825317 510.14752197 C-354.59335531 526.50573892 -355.2698472 542.67150012 -355.25 559.125 C-355.24906342 560.1271051 -355.24812683 561.12921021 -355.24716187 562.16168213 C-355.21722168 576.93856433 -355.05242659 591.58474268 -353.0625 606.25 C-352.90120605 607.44157715 -352.73991211 608.6331543 -352.57373047 609.86083984 C-345.77206403 658.42072649 -330.30478945 706.97116988 -300.0625 746.25 C-299.41539062 747.09046875 -298.76828125 747.9309375 -298.1015625 748.796875 C-294.00572226 754.00976257 -289.69053219 758.97816769 -285.21875 763.87109375 C-283.26634564 766.02510509 -281.37972641 768.22027726 -279.5 770.4375 C-275.99624693 774.44521755 -272.14038522 777.84004425 -268.0625 781.25 C-267.21171875 781.98863281 -266.3609375 782.72726562 -265.484375 783.48828125 C-251.77690572 795.22951518 -237.0778428 804.95353829 -221.0625 813.25 C-220.30114746 813.65428223 -219.53979492 814.05856445 -218.75537109 814.47509766 C-180.45699247 834.66035132 -135.14889451 844.37145578 -92.03515625 844.41796875 C-90.92555038 844.42129715 -89.81594452 844.42462555 -88.67271423 844.42805481 C-86.33739634 844.43308343 -84.00207135 844.4354644 -81.66674805 844.43530273 C-78.16507547 844.43747514 -74.66372587 844.45563643 -71.16210938 844.47460938 C-42.82673014 844.54563478 -15.56447364 840.98327955 11.9375 834.25 C12.62650391 834.08387207 13.31550781 833.91774414 14.02539062 833.74658203 C36.83698051 828.1963883 59.24141539 820.0433921 80.06445312 809.21435547 C83.00027313 807.70282145 85.97212934 806.2649949 88.9375 804.8125 C100.49031043 799.01642485 111.61670888 792.72272894 122.24194336 785.34838867 C126.73944528 782.25 126.73944528 782.25 128.9375 782.25 C128.9375 781.59 128.9375 780.93 128.9375 780.25 C130.8515625 778.91015625 130.8515625 778.91015625 133.5625 777.3125 C140.80544227 772.83453698 147.32771249 767.59490402 153.9375 762.25 C154.92234375 761.46109375 155.9071875 760.6721875 156.921875 759.859375 C162.3048377 755.51042773 167.50942546 751.00762493 172.625 746.34765625 C174.60134372 744.55492554 176.6020673 742.80204773 178.625 741.0625 C183.52363177 736.81162119 188.21532538 732.33264239 192.92260742 727.87231445 C193.55529541 727.27636475 194.1879834 726.68041504 194.83984375 726.06640625 C195.69823853 725.25345093 195.69823853 725.25345093 196.57397461 724.42407227 C197.9375 723.25 197.9375 723.25 198.9375 723.25 C197.95185904 741.13177073 196.55676595 758.94102395 194.80285645 776.7633667 C193.36367321 791.41489372 192.10539163 806.07446289 190.9375 820.75 C189.65976236 836.77908891 188.25657849 852.78793022 186.68850708 868.7911377 C185.47368081 881.22101717 184.38277799 893.65637045 183.39233398 906.10620117 C183.05519431 910.33246055 182.69590611 914.55588128 182.31665039 918.77856445 C181.52601096 927.72262026 180.83073093 936.54476625 180.96875 945.52734375 C181.05427901 963.06989595 181.05427901 963.06989595 175.63037109 968.60400391 C169.23887224 973.22002597 162.10505787 976.02138927 154.77197266 978.75341797 C149.76963472 980.64781968 145.06293649 983.09231401 140.29980469 985.51611328 C86.14460103 1012.921477 26.92278382 1029.98897309 -33.08691406 1037.98571777 C-34.96489071 1038.23694241 -36.84185419 1038.49570676 -38.71875 1038.75488281 C-56.48946024 1041.12857005 -74.09518991 1041.51089793 -92 1041.5 C-93.06539001 1041.49940582 -94.13078003 1041.49881165 -95.22845459 1041.49819946 C-116.23263187 1041.45344941 -137.2429432 1041.02472244 -158.125 1038.625 C-158.86154816 1038.54240936 -159.59809631 1038.45981873 -160.35696411 1038.37472534 C-217.33933208 1031.90657071 -272.18184859 1016.62419031 -323.5625 991.0625 C-324.18415039 990.75401123 -324.80580078 990.44552246 -325.44628906 990.12768555 C-334.31721886 985.6768771 -342.83694299 980.65716693 -351.3125 975.5 C-352.32014404 974.88745361 -353.32778809 974.27490723 -354.3659668 973.64379883 C-361.01240366 969.57534793 -367.49280837 965.35462771 -373.83203125 960.82421875 C-375.96000938 959.23858947 -375.96000938 959.23858947 -378.0625 958.25 C-378.0625 957.59 -378.0625 956.93 -378.0625 956.25 C-378.60003906 956.01152344 -379.13757812 955.77304688 -379.69140625 955.52734375 C-402.89169811 943.02899871 -425.25407435 919.18050903 -442.0625 899.25 C-442.83464844 898.36699219 -443.60679688 897.48398438 -444.40234375 896.57421875 C-467.66489157 869.8179161 -486.1867625 839.85894421 -502.0625 808.25 C-502.50335937 807.37762695 -502.94421875 806.50525391 -503.3984375 805.60644531 C-516.53608195 779.44063679 -526.42383043 751.4948767 -534.0625 723.25 C-534.44282972 721.88052236 -534.82320299 720.51105682 -535.20361328 719.14160156 C-538.36150724 707.61997111 -540.72894478 696.08149867 -542.75 684.3125 C-543.04680294 682.62161771 -543.34432789 680.93086199 -543.64257812 679.24023438 C-544.46224848 674.57902443 -545.26530298 669.91509908 -546.0625 665.25 C-546.26568848 664.06760742 -546.46887695 662.88521484 -546.67822266 661.66699219 C-548.16816534 652.88692367 -549.23286887 644.11609571 -550.0625 635.25 C-550.15563477 634.2909375 -550.24876953 633.331875 -550.34472656 632.34375 C-553.66811137 596.65397684 -553.62868815 559.91188153 -550.0625 524.25 C-549.91772217 522.67460449 -549.91772217 522.67460449 -549.77001953 521.06738281 C-544.85088437 467.86964202 -533.71217776 414.6832445 -516.0625 364.25 C-515.71396973 363.25226563 -515.36543945 362.25453125 -515.00634766 361.2265625 C-513.84579119 357.91890222 -512.67493067 354.61508002 -511.5 351.3125 C-511.13600098 350.2819751 -510.77200195 349.2514502 -510.39697266 348.18969727 C-508.24823899 342.20862144 -505.84746769 336.43016777 -503.16723633 330.66821289 C-501.85959264 327.80584588 -500.75303841 324.89777401 -499.6875 321.9375 C-497.48714088 316.12226518 -494.8511057 310.65028112 -492.015625 305.12109375 C-489.7562618 300.69399451 -487.66764603 296.18936969 -485.5625 291.6875 C-480.74730808 281.4482287 -475.56197369 271.49766741 -469.6171875 261.859375 C-468.28974037 259.63139841 -467.03634065 257.38457724 -465.79296875 255.109375 C-451.84070275 229.89556296 -434.41042502 206.06911757 -415.625 184.25 C-413.13283681 181.33234554 -410.71733067 178.36478948 -408.3125 175.375 C-405.32769162 171.70506656 -402.24716123 168.30038214 -398.8371582 165.02563477 C-397.09787904 163.2853985 -395.50486172 161.48219013 -393.91015625 159.609375 C-389.84528477 154.93337778 -385.51570812 150.55597668 -381.125 146.1875 C-380.36509766 145.42373047 -379.60519531 144.65996094 -378.82226562 143.87304688 C-374.06507696 139.12398321 -369.16464912 134.62373772 -364.0625 130.25 C-362.87111752 129.20458 -361.680985 128.15773357 -360.4921875 127.109375 C-342.39341815 111.24113216 -323.15823733 97.12762282 -303.05078125 83.90625 C-300.44646407 82.19098312 -297.89682487 80.42405355 -295.375 78.58984375 C-292.60420851 76.59228722 -289.7806775 74.89912176 -286.75 73.3125 C-283.21790306 71.43158659 -279.77387432 69.48642193 -276.375 67.375 C-269.50376079 63.21552343 -262.28008856 59.7568328 -255.0625 56.25 C-254.34980957 55.90066406 -253.63711914 55.55132813 -252.90283203 55.19140625 C-232.05676503 44.99480819 -210.83943897 36.12799373 -188.71533203 29.10693359 C-186.34668501 28.34179913 -183.99804815 27.53934313 -181.65234375 26.70703125 C-123.67475738 6.23475808 -61.10110551 0.02425569 0 0 Z " fill="#FEFEFE" transform="translate(1713.0625,572.75)"/>
<path d="M0 0 C64.02 0 128.04 0 194 0 C192.86705202 24.92485549 192.86705202 24.92485549 191.625 36.5 C191.35378907 39.15599673 191.08467432 41.81207492 190.8203125 44.46875 C190.71804352 45.49500488 190.71804352 45.49500488 190.6137085 46.54199219 C189.78288755 55.01769203 189.14797355 63.50875329 188.5 72 C187.52296616 84.76427884 186.40281953 97.50001782 185.125 110.23828125 C184.11215031 120.48283384 183.28654656 130.73597702 182.5 141 C181.52186058 153.76420995 180.40282306 166.49998258 179.125 179.23828125 C178.11215031 189.48283384 177.28654656 199.73597702 176.5 210 C175.52186058 222.76420995 174.40282306 235.49998258 173.125 248.23828125 C172.11215031 258.48283384 171.28654656 268.73597702 170.5 279 C169.52186058 291.76420995 168.40282306 304.49998258 167.125 317.23828125 C166.11215031 327.48283384 165.28654656 337.73597702 164.5 348 C163.52186058 360.76420995 162.40282306 373.49998258 161.125 386.23828125 C160.11215031 396.48283384 159.28654656 406.73597702 158.5 417 C157.52186058 429.76420995 156.40282306 442.49998258 155.125 455.23828125 C154.11214921 465.48284495 153.28689835 475.73599711 152.5 486 C151.52803534 498.66275059 150.44528915 511.30482901 149.18052673 523.94212341 C148.25285184 533.27033941 147.39773902 542.60372325 146.58203125 551.94238281 C146.45158681 553.42901791 146.3210769 554.91564727 146.19050598 556.40227127 C145.85698277 560.20203892 145.52443952 564.00189158 145.19223785 567.80177498 C145.00830675 569.90501292 144.82412891 572.00822906 144.63983154 574.11143494 C143.15929687 591.00796214 141.68688586 607.90519955 140.21522522 624.80250168 C139.5405511 632.54875259 138.86528443 640.29495083 138.18847656 648.04101562 C137.39473885 657.12615031 136.60255204 666.21141903 135.8125 675.296875 C135.74891989 676.02794417 135.68533978 676.75901334 135.61983299 677.51223612 C133.96490745 696.54955048 132.33597233 715.5882416 130.89282227 734.64300537 C130.12450988 744.73279151 129.18594417 754.80095653 128.17393494 764.86882401 C127.14467338 775.22457935 126.25842606 785.58926429 125.40625 795.9609375 C125.26865801 797.62525269 125.13096322 799.28955938 124.99316406 800.95385742 C124.66092961 804.96914178 124.33006767 808.98453697 124 813 C163.16769231 812.89469802 202.33536925 812.78477205 241.50303173 812.66888306 C246.15656207 812.65511808 250.81009252 812.64139029 255.46362305 812.62768555 C256.38982287 812.62495724 257.3160227 812.62222894 258.27028919 812.61941796 C273.1489904 812.57567793 288.02769832 812.53493177 302.9064111 812.49534739 C318.24205605 812.45447861 333.57768888 812.41026439 348.91331583 812.36312145 C357.49810859 812.3368224 366.0829 812.31194717 374.66770744 812.29092598 C384.31616713 812.26710288 393.964608 812.23944098 403.61303711 812.20532227 C404.37317475 812.20263508 405.1333124 812.19994789 405.91648452 812.19717927 C427.86249388 812.11713025 449.7999108 811.88153777 471.74021053 811.3395853 C473.52895792 811.2954922 475.31770784 811.25150195 477.10646057 811.20762634 C477.94089902 811.18710231 478.77533746 811.16657827 479.63506192 811.14543229 C488.09019929 810.95104278 496.54316678 810.95535548 505 811 C504.08837528 821.5212758 503.17178817 832.04210988 502.25 842.5625 C502.18157143 843.34354347 502.11314285 844.12458694 502.04264069 844.9292984 C500.43568969 863.25649981 498.82183773 881.58011436 496.875 899.875 C495.40285018 913.71673191 494.12567726 927.56845964 492.9375 941.4375 C492.81255661 942.89462906 492.81255661 942.89462906 492.68508911 944.38119507 C492.35786565 948.19896239 492.03081221 952.01674424 491.70402527 955.83454895 C490.99567543 964.09185442 490.26660236 972.3470997 489.50466919 980.59963989 C489.3779084 981.97685748 489.25245228 983.35419587 489.12838745 984.73165894 C488.96020148 986.59616605 488.78689063 988.4602088 488.61328125 990.32421875 C488.51829346 991.35635498 488.42330566 992.38849121 488.32543945 993.4519043 C488 996 488 996 487 999 C297.25 999 107.5 999 -88 999 C-84.62600059 957.38734063 -84.62600059 957.38734063 -83.29348755 944.06674194 C-81.70359224 928.12052684 -80.33301992 912.1620241 -79.0625 896.1875 C-77.60170174 877.82765286 -75.94336954 859.49355946 -74.17852783 841.1605835 C-72.63095146 825.05406386 -71.2210976 808.94215456 -69.9375 792.8125 C-68.69925891 777.25472143 -67.34017398 761.71735942 -65.81710815 746.18496704 C-64.21592233 729.80302615 -62.84516195 713.40474411 -61.5 697 C-60.08629783 679.75938272 -58.62565932 662.52853396 -56.9375 645.3125 C-55.39574443 629.58827876 -54.07046824 613.85360305 -52.81710815 598.10391235 C-51.43369492 580.77270962 -49.84451745 563.4666951 -48.17852783 546.1605835 C-46.63095146 530.05406386 -45.2210976 513.94215456 -43.9375 497.8125 C-42.69925891 482.25472143 -41.34017398 466.71735942 -39.81710815 451.18496704 C-38.21592233 434.80302615 -36.84516195 418.40474411 -35.5 402 C-34.08629783 384.75938272 -32.62565932 367.52853396 -30.9375 350.3125 C-29.39574443 334.58827876 -28.07046824 318.85360305 -26.81710815 303.10391235 C-25.43369492 285.77270962 -23.84451745 268.4666951 -22.17852783 251.1605835 C-20.63095146 235.05406386 -19.2210976 218.94215456 -17.9375 202.8125 C-16.69925891 187.25472143 -15.34017398 171.71735942 -13.81710815 156.18496704 C-12.21592201 139.80302296 -10.84533122 123.40473244 -9.5 107 C-7.93908446 87.97291376 -6.3160382 68.95700383 -4.43164062 49.95898438 C-2.79283614 33.3160144 -1.428811 16.66946163 0 0 Z " fill="#FEFEFE" transform="translate(2124,592)"/>
<path d="M0 0 C1.32 0 2.64 0 4 0 C4.09535034 0.93453003 4.09535034 0.93453003 4.19262695 1.88793945 C8.66692769 43.13205107 22.27452219 83.17016778 33.79626465 122.85229492 C35.04891761 127.16719148 36.2984585 131.48298674 37.54785156 135.79882812 C50.57734935 180.79774278 63.79439036 225.74070061 77.09123611 270.66127396 C77.84506561 273.2085153 78.59841586 275.75589795 79.35165405 278.30331421 C81.80311274 286.59192015 84.26034154 294.87873351 86.73106575 303.16162014 C87.9520706 307.25684659 89.16995016 311.35299908 90.3874321 315.44927406 C90.97445062 317.42134426 91.56293589 319.39297849 92.15294266 321.36415672 C92.9694178 324.09235645 93.78090666 326.82199312 94.59130859 329.55200195 C94.83634502 330.36610094 95.08138145 331.18019993 95.33384323 332.01896858 C96.2460281 335.10637854 97 337.7622475 97 341 C16.15 341 -64.7 341 -148 341 C-145.75010368 334.25031105 -145.75010368 334.25031105 -144.3269043 331.10717773 C-144.00814331 330.39929108 -143.68938232 329.69140442 -143.36096191 328.96206665 C-143.01883667 328.21017059 -142.67671143 327.45827454 -142.32421875 326.68359375 C-141.96283813 325.88303558 -141.60145752 325.08247742 -141.22912598 324.25765991 C-140.05122973 321.64973481 -138.86933998 319.04363994 -137.6875 316.4375 C-136.86661633 314.62148568 -136.04606252 312.80532222 -135.22583008 310.98901367 C-133.58258769 307.3506008 -131.9381885 303.71271445 -130.29296875 300.07519531 C-127.24265678 293.32773619 -124.21320436 286.57102581 -121.1875 279.8125 C-120.14975582 277.49608648 -119.11199555 275.17968016 -118.07421875 272.86328125 C-117.3169751 271.17259521 -117.3169751 271.17259521 -116.54443359 269.44775391 C-113.59147152 262.85563719 -110.63608826 256.26460561 -107.68109131 249.67340088 C-104.7617193 243.16159213 -101.84283031 236.64956847 -98.92578125 230.13671875 C-94.20683525 219.60273176 -89.48433288 209.07044069 -84.7421875 198.546875 C-77.12671005 181.64528298 -69.53252787 164.7352362 -62.01931763 147.78790283 C-56.39725156 135.10830506 -50.70639087 122.46059253 -44.99932861 109.81906128 C-38.28580531 94.93993545 -31.70187525 80.00588903 -25.18798828 65.03833008 C-21.80612292 57.28394209 -18.35590542 49.57999534 -14.7109375 41.9453125 C-11.8806185 36.00149846 -9.32613484 30.0682484 -7.25 23.8125 C-6.82642212 22.57258301 -6.82642212 22.57258301 -6.39428711 21.30761719 C-4.01995178 14.27244866 -1.91232075 7.17417225 0 0 Z " fill="#0175B1" transform="translate(3149,923)"/>
</svg>
