<?xml version="1.0" encoding="UTF-8"?>
<svg version="1.1" xmlns="http://www.w3.org/2000/svg" width="1500" height="331">
<path d="M0 0 C0 31.68 0 63.36 0 96 C-31.68 96 -63.36 96 -96 96 C-94.8 86.4 -94.8 86.4 -91 82 C-84.86888735 77.50189503 -79.61896672 77.3991148 -72.16015625 77.390625 C-70.47701576 77.36582062 -70.47701576 77.36582062 -68.75987244 77.34051514 C-65.1940254 77.29212972 -61.62860461 77.27068422 -58.0625 77.25 C-55.63734846 77.22183256 -53.21221669 77.19190406 -50.78710938 77.16015625 C-44.85815005 77.08637314 -38.92931013 77.03467517 -33 77 C-33.57407089 76.42814972 -34.14814178 75.85629944 -34.73960876 75.26712036 C-40.14261716 69.88412818 -45.54323077 64.49875018 -50.94115353 59.11065865 C-53.71652733 56.34050902 -56.49282601 53.5712996 -59.27124023 50.80419922 C-61.95126077 48.13502401 -64.62884905 45.4634313 -67.30475044 42.7901268 C-68.32737081 41.76935771 -69.35087258 40.74947085 -70.37525749 39.73047256 C-71.80709065 38.30587156 -73.23553813 36.87787011 -74.66381836 35.44970703 C-75.47878281 34.6369632 -76.29374725 33.82421936 -77.13340759 32.98684692 C-80.0989104 29.83029271 -80.41501256 27.38418942 -80.3359375 23.04296875 C-80 21 -80 21 -78 18 C-74.9192659 15.94617727 -72.81578904 15.13904581 -69.08459473 15.39329529 C-66.54959345 16.13108724 -65.27935337 17.17847322 -63.33398438 18.95727539 C-62.63772949 19.59319611 -61.94147461 20.22911682 -61.22412109 20.88430786 C-57.24223735 24.67206931 -53.3426625 28.53569743 -49.46875 32.43359375 C-48.59222778 33.31153091 -47.71570557 34.18946808 -46.81262207 35.0940094 C-44.03937204 37.87281496 -41.26963718 40.65509397 -38.5 43.4375 C-36.60989195 45.33319865 -34.71898482 47.22809783 -32.828125 49.12304688 C-28.21608996 53.74605189 -23.60692859 58.37190657 -19 63 C-18.99857498 62.37883301 -18.99714996 61.75766602 -18.99568176 61.11767578 C-18.97593133 54.62797396 -18.92154299 48.13920596 -18.84741211 41.64990234 C-18.82427502 39.23102528 -18.80984653 36.81204809 -18.80444336 34.39306641 C-18.79512298 30.90724597 -18.75406095 27.42299123 -18.70703125 23.9375 C-18.7109639 22.86322754 -18.71489655 21.78895508 -18.71894836 20.68212891 C-18.59066585 14.01788366 -17.64338557 9.00907566 -13 4 C-8.44302456 0.87045971 -5.64255724 0 0 0 Z " fill="#FDBA31" transform="translate(158,62)"/>
<path d="M0 0 C31.35 0 62.7 0 95 0 C95 8.26315789 95 8.26315789 91 13 C86.37250526 16.49423072 82.92402006 18.10162432 77.16137695 18.20532227 C76.1805867 18.22526749 75.19979645 18.24521271 74.18928528 18.26576233 C73.13295395 18.28247482 72.07662262 18.29918732 70.98828125 18.31640625 C69.90491989 18.33718735 68.82155853 18.35796844 67.70536804 18.37937927 C64.24114384 18.44481797 60.7768432 18.50373353 57.3125 18.5625 C54.96548685 18.60569061 52.61848147 18.64930507 50.27148438 18.69335938 C44.51440396 18.80049357 38.75724733 18.90227064 33 19 C33.57407089 19.57185028 34.14814178 20.14370056 34.73960876 20.73287964 C40.14261716 26.11587182 45.54323077 31.50124982 50.94115353 36.88934135 C53.71652733 39.65949098 56.49282601 42.4287004 59.27124023 45.19580078 C61.95126077 47.86497599 64.62884905 50.5365687 67.30475044 53.2098732 C68.32737081 54.23064229 69.35087258 55.25052915 70.37525749 56.26952744 C71.80709065 57.69412844 73.23553813 59.12212989 74.66381836 60.55029297 C75.88626503 61.76940872 75.88626503 61.76940872 77.13340759 63.01315308 C79.62611023 65.66644715 79.96441388 66.6227871 80.3125 70.3125 C79.95124058 74.57536111 78.98007946 76.01992054 76 79 C72.73952371 80.63023814 70.62198965 80.4673535 67 80 C65.20666504 78.75157166 65.20666504 78.75157166 63.35351562 77.05834961 C62.65444092 76.42017303 61.95536621 75.78199646 61.23510742 75.1244812 C57.24832754 71.33502624 53.34597753 67.46763812 49.46875 63.56640625 C48.59222778 62.68846909 47.71570557 61.81053192 46.81262207 60.9059906 C44.03937204 58.12718504 41.26963718 55.34490603 38.5 52.5625 C36.60989195 50.66680135 34.71898482 48.77190217 32.828125 46.87695312 C28.21608996 42.25394811 23.60692859 37.62809343 19 33 C18.99635437 33.59611084 18.99270874 34.19222168 18.98895264 34.80639648 C18.94699343 41.0365229 18.87755428 47.26592182 18.79248047 53.49560547 C18.76433468 55.81747139 18.74308851 58.13943199 18.72900391 60.46142578 C18.70748645 63.80810799 18.66078876 67.15365949 18.609375 70.5 C18.60753204 72.04578735 18.60753204 72.04578735 18.60565186 73.62280273 C18.47961263 79.88948836 17.65076227 84.79076276 14 90 C8.89602286 94.73940734 7.36481286 95 0 95 C0 63.65 0 32.3 0 0 Z " fill="#FDBA31" transform="translate(173,173)"/>
<path d="M0 0 C31.68 0 63.36 0 96 0 C96 31.35 96 62.7 96 95 C87.86486486 95 87.86486486 95 83 91 C79.13690261 86.71927046 77.893346 83.68644714 77.79467773 77.9777832 C77.7647599 76.44653557 77.7647599 76.44653557 77.73423767 74.88435364 C77.71752518 73.78427475 77.70081268 72.68419586 77.68359375 71.55078125 C77.66281265 70.4230278 77.64203156 69.29527435 77.62062073 68.13334656 C77.55517153 64.5264604 77.49626156 60.91950071 77.4375 57.3125 C77.39431039 54.86913298 77.35069596 52.42577344 77.30664062 49.98242188 C77.19949484 43.98835926 77.09771971 37.99422329 77 32 C76.41562164 32.58659897 75.83124329 33.17319794 75.22915649 33.77757263 C69.72843536 39.29830939 64.2253274 44.81665326 58.71950722 50.33230495 C55.8888236 53.16821291 53.05908009 56.00504597 50.23144531 58.84399414 C47.50391514 61.58236907 44.77396782 64.31831241 42.04230881 67.05256844 C40.99921109 68.09751752 39.95699566 69.14334807 38.91566849 70.19006157 C37.45992137 71.65304015 36.00110282 73.11288722 34.54150391 74.57202148 C33.71099518 75.40475082 32.88048645 76.23748016 32.02481079 77.09544373 C29.60666475 79.36997488 28.54234454 79.92604393 25.25 80.375 C21.76590202 79.97298869 19.71340006 79.0989582 17.15197754 76.65977478 C15.28575049 73.97090587 15.16558727 71.8131132 15.27661133 68.58694458 C16.88917923 62.82016395 22.06271635 58.86400293 26.28125 54.83984375 C27.33695815 53.80093972 28.39068336 52.76001715 29.44250488 51.71717834 C32.20470097 48.98920463 34.99284073 46.28934712 37.78741455 43.59460449 C40.63888331 40.83551198 43.46477176 38.05048509 46.29296875 35.26757812 C51.8373666 29.81945334 57.40944938 24.40079815 63 19 C62.10250282 18.99120064 62.10250282 18.99120064 61.18687439 18.98222351 C54.94076396 18.91812533 48.69516095 18.8336635 42.44946289 18.73754883 C40.12075505 18.70436252 37.79196798 18.67631112 35.46313477 18.65356445 C32.10919543 18.61990331 28.75597794 18.56758001 25.40234375 18.51171875 C24.36665756 18.50532883 23.33097137 18.4989389 22.26390076 18.49235535 C15.58962632 18.35761465 10.43703559 17.70444035 5.0390625 13.45703125 C4.57242188 12.91433594 4.10578125 12.37164062 3.625 11.8125 C3.14289063 11.28269531 2.66078125 10.75289062 2.1640625 10.20703125 C1 8 1 8 0 0 Z " fill="#FDBA31" transform="translate(62,173)"/>
<path d="M0 0 C9.07211232 1.13401404 9.07211232 1.13401404 12.375 4.1875 C13.02210938 4.75855469 13.66921875 5.32960938 14.3359375 5.91796875 C18.84849271 11.56395919 18.33783791 18.43630063 18.4140625 25.3046875 C18.43342865 26.38380402 18.4527948 27.46292053 18.4727478 28.57473755 C18.53233942 32.00807895 18.57884761 35.44145424 18.625 38.875 C18.66319853 41.20834764 18.70225135 43.54168146 18.7421875 45.875 C18.83802417 51.58321032 18.92313112 57.29150444 19 63 C19.57185028 62.42592911 20.14370056 61.85185822 20.73287964 61.26039124 C26.11587182 55.85738284 31.50124982 50.45676923 36.88934135 45.05884647 C39.65949098 42.28347267 42.4287004 39.50717399 45.19580078 36.72875977 C47.86497599 34.04873923 50.5365687 31.37115095 53.2098732 28.69524956 C54.23064229 27.67262919 55.25052915 26.64912742 56.26952744 25.62474251 C57.69412844 24.19290935 59.12212989 22.76446187 60.55029297 21.33618164 C61.3630368 20.52121719 62.17578064 19.70625275 63.01315308 18.86659241 C66.14654337 15.92285151 68.63934674 15.53479131 72.95703125 15.58984375 C75 16 75 16 78 18.625 C81.02491103 23.72953737 81.02491103 23.72953737 80 28 C75.20621478 34.48846083 69.05275261 40.07911506 63.34765625 45.75 C62.44752304 46.64871826 61.54738983 47.54743652 60.61997986 48.47338867 C58.25288737 50.83586575 55.88365361 53.19615112 53.51330566 55.55535889 C51.08449258 57.97385181 48.65858897 60.39525946 46.23242188 62.81640625 C41.49092631 67.54692954 36.74658102 72.27457973 32 77 C32.62560822 77.00586624 33.25121643 77.01173248 33.89578247 77.01777649 C40.41747083 77.08179728 46.9386697 77.16623972 53.45996094 77.26245117 C55.8925124 77.29566947 58.32514037 77.32371099 60.7578125 77.34643555 C64.25814358 77.38003758 67.75777555 77.43235834 71.2578125 77.48828125 C72.88470505 77.49786613 72.88470505 77.49786613 74.54446411 77.50764465 C81.76982393 77.64777712 86.26987389 78.57322124 91.8125 83.5 C95.63327989 87.86660559 95 89.79308331 95 96 C63.65 96 32.3 96 0 96 C0 64.32 0 32.64 0 0 Z " fill="#FDBA31" transform="translate(173,62)"/>
<path d="M0 0 C13 0 13 0 15.74609375 1.921875 C16.30425781 2.85515625 16.86242187 3.7884375 17.4375 4.75 C18.14261719 5.84570312 18.84773437 6.94140625 19.57421875 8.0703125 C19.95239746 8.69196289 20.33057617 9.31361328 20.72021484 9.95410156 C23.22563524 13.95933294 26.02219482 17.76955882 28.75 21.625 C29.96309317 23.36529072 31.17532773 25.10618025 32.38671875 26.84765625 C35.72468232 31.62650594 39.13368556 36.3483984 42.5625 41.0625 C49.19295853 50.26789389 55.59382942 59.6371353 62 69 C62.33 46.23 62.66 23.46 63 0 C67.29 0 71.58 0 76 0 C76 32.34 76 64.68 76 98 C65 98 65 98 61.94140625 95.09765625 C61.11005158 93.77598535 60.31879841 92.42850778 59.5625 91.0625 C58.64791952 89.58204252 57.73117947 88.1029174 56.8125 86.625 C56.35230469 85.85800781 55.89210938 85.09101563 55.41796875 84.30078125 C53.13689261 80.59953098 50.59834275 77.09179112 48.0625 73.5625 C47.0524406 72.13738793 46.04333007 70.71160287 45.03515625 69.28515625 C44.53387207 68.57762207 44.03258789 67.87008789 43.51611328 67.14111328 C41.00656069 63.59702694 38.50364494 60.04826075 36 56.5 C35.0117313 55.10025156 34.02345001 53.700512 33.03515625 52.30078125 C30.91635163 49.29931431 28.79947648 46.29649612 26.68359375 43.29296875 C26.14025391 42.52210938 25.59691406 41.75125 25.03710938 40.95703125 C23.99755945 39.48211426 22.95847097 38.00687188 21.91992188 36.53125 C21.45005859 35.86480469 20.98019531 35.19835937 20.49609375 34.51171875 C20.08544678 33.92865967 19.6747998 33.34560059 19.25170898 32.74487305 C17.8630497 30.80909229 16.4294138 28.90588507 15 27 C14.67 50.43 14.34 73.86 14 98 C9.38 98 4.76 98 0 98 C0 65.66 0 33.32 0 0 Z " fill="#FFFFFF" transform="translate(553,202)"/>
<path d="M0 0 C13 0 13 0 16.69140625 3.33984375 C17.69338358 4.84339492 18.64883355 6.37870613 19.5625 7.9375 C20.64557568 9.60173021 21.72891512 11.26578879 22.8125 12.9296875 C23.34230469 13.77885742 23.87210938 14.62802734 24.41796875 15.50292969 C26.82039302 19.2949043 29.44400448 22.91816683 32.0625 26.5625 C33.05505402 27.96887595 34.04594014 29.37643049 35.03515625 30.78515625 C37.45654128 34.22842483 39.88218227 37.66865604 42.31030273 41.10717773 C48.87506637 50.40370257 55.4369126 59.70229284 62 69 C62.33 46.23 62.66 23.46 63 0 C67.29 0 71.58 0 76 0 C76 32.34 76 64.68 76 98 C65 98 65 98 61.72265625 94.87890625 C60.79789742 93.4642534 59.91283271 92.0231012 59.0625 90.5625 C58.05440022 88.99023429 57.04525624 87.41863768 56.03515625 85.84765625 C55.53387207 85.0395752 55.03258789 84.23149414 54.51611328 83.39892578 C52.15472266 79.66252896 49.575848 76.09023247 47 72.5 C45.99880378 71.08417848 44.99880631 69.66750852 44 68.25 C43.505 67.54875 43.01 66.8475 42.5 66.125 C38 59.75 38 59.75 36.49780273 57.62182617 C35.50520375 56.21568472 34.51252889 54.80959682 33.51977539 53.40356445 C30.90589141 49.70131438 28.29361972 45.99793988 25.68359375 42.29296875 C25.14025391 41.52210938 24.59691406 40.75125 24.03710938 39.95703125 C22.99755945 38.48211426 21.95847097 37.00687188 20.91992188 35.53125 C20.45005859 34.86480469 19.98019531 34.19835937 19.49609375 33.51171875 C19.08544678 32.92865967 18.6747998 32.34560059 18.25170898 31.74487305 C16.8630497 29.80909229 15.4294138 27.90588507 14 26 C13.67 49.76 13.34 73.52 13 98 C8.71 98 4.42 98 0 98 C0 65.66 0 33.32 0 0 Z " fill="#FFFFFF" transform="translate(980,202)"/>
<path d="M0 0 C13 0 13 0 16.62109375 3.234375 C17.60484928 4.71059536 18.54180764 6.2187467 19.4375 7.75 C20.51783748 9.41041117 21.59858136 11.07055796 22.6796875 12.73046875 C23.22206055 13.59849121 23.76443359 14.46651367 24.32324219 15.36083984 C27.08195148 19.70295508 30.08586653 23.86832003 33.0625 28.0625 C34.23721033 29.74241848 35.4103993 31.42340186 36.58203125 33.10546875 C39.79119532 37.70487785 43.01583934 42.29313995 46.25 46.875 C46.68449463 47.49125244 47.11898926 48.10750488 47.56665039 48.74243164 C52.34968239 55.51523317 57.18048811 62.25268335 62 69 C62.33 46.23 62.66 23.46 63 0 C67.29 0 71.58 0 76 0 C76 32.01 76 64.02 76 97 C64 97 64 97 60.44140625 93.4765625 C59.44021954 91.88476455 58.48243754 90.26509465 57.5625 88.625 C56.4716093 86.86411083 55.37778454 85.10503646 54.28125 83.34765625 C53.73855469 82.45062988 53.19585938 81.55360352 52.63671875 80.62939453 C50.14417545 76.62511479 47.3649595 72.8532131 44.5625 69.0625 C39.35078983 61.91180608 34.24907587 54.68926705 29.19555664 47.42602539 C24.1897804 40.23888501 19.09250476 33.12950666 14 26 C13.67 49.43 13.34 72.86 13 97 C8.71 97 4.42 97 0 97 C0 64.99 0 32.98 0 0 Z " fill="#FFFFFF" transform="translate(478,31)"/>
<path d="M0 0 C11.74312803 12.28932004 15.25792236 27.69518494 14.9609375 44.22265625 C14.38594024 57.70662656 9.88532154 71.32614175 -0.125 80.75 C-11.48956979 89.76252149 -24.16351155 92.12628551 -38.3125 90.8125 C-49.76767936 88.81479764 -59.24588223 83.35369444 -66.25 74 C-75.9344545 58.8245988 -77.03993871 41.00021988 -73.34765625 23.78515625 C-70.62649762 12.52490998 -64.05070771 2.42003181 -54.375 -4.0625 C-36.28187985 -14.35074479 -16.72731054 -11.04633715 0 0 Z M-53.92578125 14.75 C-60.72099623 24.85668594 -61.32987014 37.02950404 -60.3125 48.8125 C-58.0795212 60.04681305 -53.60144919 68.0506914 -44.3125 74.8125 C-38.14929505 78.45906293 -31.29531865 78.62236299 -24.3125 77.8125 C-16.30542617 75.72076442 -10.31034719 72.01440105 -5.625 65.125 C-1.14216695 57.28773801 0.22716201 49.31335199 0.125 40.375 C0.11887695 39.45775146 0.11275391 38.54050293 0.10644531 37.59545898 C-0.05184216 30.73369701 -1.01271305 24.91939737 -4.3125 18.8125 C-4.89 17.74 -5.4675 16.6675 -6.0625 15.5625 C-12.97563698 7.11311036 -19.53992583 3.76424378 -30.375 2.4375 C-40.00736665 3.66716383 -47.70325144 7.17190595 -53.92578125 14.75 Z " fill="#FFFFFF" transform="translate(1401.3125,39.1875)"/>
<path d="M0 0 C1.175625 0.61875 1.175625 0.61875 2.375 1.25 C13.07248136 7.61066459 18.44582828 17.36123166 22 29 C25.64717107 44.86822121 24.0360746 63.31773474 15.7890625 77.39453125 C8.83264383 87.52538551 -0.12868724 93.18286982 -12 96 C-24.39089256 97.27826883 -36.73609543 96.58512378 -47.25 89.3125 C-57.69905853 80.62305423 -63.8776839 70.45717351 -66 57 C-66.28562464 53.36984686 -66.33456232 49.76528211 -66.3125 46.125 C-66.30686035 45.15191895 -66.3012207 44.17883789 -66.29541016 43.17626953 C-66.18024714 36.37937139 -65.6735777 30.31936547 -63 24 C-62.5978125 23.01 -62.195625 22.02 -61.78125 21 C-56.79404341 9.91731868 -49.41839124 2.34736914 -38 -2 C-26.29662339 -6.0489677 -10.99006368 -5.94057496 0 0 Z M-45.30859375 20.46875 C-52.23631124 30.83632721 -53.36395655 44.01481845 -51.25 56.0625 C-49.12759587 65.41571545 -45.07191702 73.60484668 -37.1328125 79.3515625 C-29.82179153 83.71307286 -22.33636373 83.76687329 -14 83 C-6.15620949 80.80331004 -0.46727115 75.69574821 4 69 C10.37597112 55.6751444 10.75414199 40.94071712 6 27 C2.35007252 19.61166196 -3.81476168 12.4427191 -11.73046875 9.4765625 C-25.4850787 6.58833115 -36.40065521 9.67124874 -45.30859375 20.46875 Z " fill="#FFFFFF" transform="translate(1477,205)"/>
<path d="M0 0 C42.25 0 42.25 0 51.8125 8.5 C52.534375 9.325 53.25625 10.15 54 11 C54.556875 11.61875 55.11375 12.2375 55.6875 12.875 C59.82071783 19.56687649 59.74919381 27.36932232 59 35 C56.31943461 44.75146219 50.53501222 50.04575947 42.01171875 54.8984375 C41.34785156 55.26195312 40.68398438 55.62546875 40 56 C46.39929758 65.41299484 52.89866238 74.73226762 59.6706543 83.88232422 C62.52879117 87.78536659 64.98842067 91.57173161 67 96 C64.01316202 96.74339079 61.01666953 97.38971982 58 98 C56.96875 98.226875 55.9375 98.45375 54.875 98.6875 C49.81025533 97.4763654 47.82958618 93.1367605 45 89 C44.08174395 87.7014835 43.16098862 86.40473224 42.23828125 85.109375 C41.22126076 83.67714966 40.20433649 82.24485599 39.1875 80.8125 C38.6706665 80.08554932 38.15383301 79.35859863 37.62133789 78.60961914 C35.11011514 75.05899984 32.65493575 71.49378552 30.3203125 67.82421875 C29.89596924 67.17799561 29.47162598 66.53177246 29.03442383 65.8659668 C28.24475284 64.66008161 27.47709177 63.43936191 26.73706055 62.20239258 C25.54010746 60.28027872 25.54010746 60.28027872 23 58 C20.03 57.67 17.06 57.34 14 57 C14 70.53 14 84.06 14 98 C9.38 98 4.76 98 0 98 C0 65.66 0 33.32 0 0 Z M14 13 C14 23.56 14 34.12 14 45 C27.87154519 45.71162648 27.87154519 45.71162648 40 41 C44.29793235 35.8634467 45.44996938 31.63704839 45 25 C43.37016641 20.84392433 41.496542 17.7972336 38 15 C32.81713347 12.76176361 28.15277989 12.76128452 22.625 12.875 C19.77875 12.91625 16.9325 12.9575 14 13 Z " fill="#FFFFFF" transform="translate(787,202)"/>
<path d="M0 0 C41.2745098 0 41.2745098 0 51.5625 7.1875 C57.65753446 13.32119218 59.38627128 19.36203132 59.5625 27.9375 C59.48235649 35.87907705 57.69619477 41.88238635 52.35546875 47.83203125 C48.62659454 51.29155111 44.74902535 53.25546008 40 55 C44.18699893 61.9123546 48.73729655 68.47660544 53.5 75 C58.26270345 81.52339456 62.81300107 88.0876454 67 95 C62.01770224 96.91626837 57.27315333 97.5547115 52 98 C45.01974084 88.39924487 38.0861887 78.76650987 31.25 69.0625 C30.6420459 68.20495117 30.0340918 67.34740234 29.40771484 66.46386719 C28.8452002 65.66239258 28.28268555 64.86091797 27.703125 64.03515625 C27.20458008 63.3275415 26.70603516 62.61992676 26.19238281 61.89086914 C25 60 25 60 24 57 C20.7 57 17.4 57 14 57 C14 70.2 14 83.4 14 97 C9.38 97 4.76 97 0 97 C0 64.99 0 32.98 0 0 Z M14 13 C14 23.56 14 34.12 14 45 C28.84211592 45.68992625 28.84211592 45.68992625 40.9375 39.5625 C44.54161446 35.08466082 45.40452181 31.92154611 45.24609375 26.24609375 C44.87944739 22.89971823 43.92228373 20.75527335 42 18 C37.56746917 14.58325749 34.13173835 12.86488766 28.55078125 12.90234375 C27.78677002 12.90484131 27.02275879 12.90733887 26.2355957 12.90991211 C25.27097412 12.91901611 24.30635254 12.92812012 23.3125 12.9375 C20.239375 12.958125 17.16625 12.97875 14 13 Z " fill="#FFFFFF" transform="translate(844,31)"/>
<path d="M0 0 C4.95 0 9.9 0 15 0 C24.36112193 23.59554301 33.71126537 47.19561374 42.98883057 70.82415771 C43.78806238 72.85835509 44.58847804 74.89208774 45.39007568 76.925354 C46.50680963 79.75886065 47.61922517 82.594024 48.73046875 85.4296875 C49.063918 86.2732782 49.39736725 87.1168689 49.74092102 87.98602295 C52 93.77143301 52 93.77143301 52 96 C47.10945915 97.34911472 43.10629224 98.11704968 38 98 C35.18446381 91.30998701 32.41015278 84.60332918 29.6875 77.875 C29.42114746 77.22394287 29.15479492 76.57288574 28.88037109 75.90209961 C27 71.23080346 27 71.23080346 27 69 C14.13 69.33 1.26 69.66 -12 70 C-15.24899648 78.83958857 -15.24899648 78.83958857 -18.49194336 87.68139648 C-18.89550049 88.77524658 -19.29905762 89.86909668 -19.71484375 90.99609375 C-20.33540649 92.68496704 -20.33540649 92.68496704 -20.96850586 94.40795898 C-22 97 -22 97 -23 98 C-25.35313555 98.07271741 -27.70833668 98.08370868 -30.0625 98.0625 C-31.99802734 98.04896484 -31.99802734 98.04896484 -33.97265625 98.03515625 C-34.97167969 98.02355469 -35.97070312 98.01195312 -37 98 C-36.29386926 93.58335706 -34.80227317 89.56810696 -33.18359375 85.421875 C-32.75124672 84.30040573 -32.75124672 84.30040573 -32.31016541 83.15628052 C-31.35656133 80.6859723 -30.39710357 78.21798321 -29.4375 75.75 C-28.76810114 74.01980648 -28.09899796 72.28949855 -27.43017578 70.55908203 C-21.7750246 55.94208152 -16.07829167 41.34100752 -10.36889648 26.74511719 C-6.88566106 17.84016443 -3.42201789 8.92871335 0 0 Z M7 18 C5.16393924 22.76774309 3.33093378 27.53664521 1.50073242 32.30664062 C0.8778707 33.92870676 0.25417969 35.55045471 -0.37036133 37.171875 C-1.26863038 39.50437315 -2.16389737 41.8380045 -3.05859375 44.171875 C-3.3377916 44.89493835 -3.61698944 45.61800171 -3.90464783 46.36297607 C-5.13055263 49.5686959 -6.16583338 52.66333353 -7 56 C2.57 56 12.14 56 22 56 C17.56200609 43.2407675 12.85915707 30.60448268 8 18 C7.67 18 7.34 18 7 18 Z " fill="#FFFFFF" transform="translate(476,202)"/>
<path d="M0 0 C4.95 0 9.9 0 15 0 C15.5168335 1.3197583 16.03366699 2.6395166 16.56616211 3.99926758 C18.56987493 9.11525167 20.57440428 14.2309155 22.57922363 19.34646606 C23.48277314 21.65213324 24.38617548 23.9578581 25.28942871 26.26364136 C30.20689307 38.81547245 35.13498739 51.36277779 40.11328125 63.890625 C40.7079142 65.38833687 40.7079142 65.38833687 41.31455994 66.91630554 C43.19499898 71.65203296 45.07889226 76.38633409 46.96850586 81.1184082 C47.64060393 82.80935124 48.31256832 84.50034742 48.984375 86.19140625 C49.2927681 86.95982849 49.60116119 87.72825073 49.91889954 88.5199585 C52 93.77290391 52 93.77290391 52 96 C42.58997722 98.29612756 42.58997722 98.29612756 38 98 C35.19358196 91.93813704 32.68515288 85.78067181 30.25 79.5625 C29.93216553 78.75699707 29.61433105 77.95149414 29.28686523 77.12158203 C28.99110596 76.36087402 28.69534668 75.60016602 28.390625 74.81640625 C28.12282227 74.13006104 27.85501953 73.44371582 27.57910156 72.73657227 C27 71 27 71 27 69 C14.13 69.33 1.26 69.66 -12 70 C-15.24707555 78.46612965 -15.24707555 78.46612965 -18.49194336 86.93310547 C-19.09727905 88.50922607 -19.09727905 88.50922607 -19.71484375 90.1171875 C-20.12855225 91.19597168 -20.54226074 92.27475586 -20.96850586 93.38623047 C-22 96 -22 96 -23 98 C-27.62 98 -32.24 98 -37 98 C-35.87504777 91.25028661 -35.87504777 91.25028661 -34.48803711 87.74682617 C-34.02420876 86.56240936 -34.02420876 86.56240936 -33.55101013 85.35406494 C-33.21320023 84.5089032 -32.87539032 83.66374146 -32.52734375 82.79296875 C-31.99470665 81.43954376 -31.99470665 81.43954376 -31.4513092 80.05877686 C-30.28539731 77.09953858 -29.11143205 74.14356472 -27.9375 71.1875 C-27.12762766 69.13574564 -26.31839003 67.08374065 -25.50976562 65.03149414 C-23.8418661 60.7994263 -22.17143869 56.56836885 -20.49951172 52.33789062 C-16.98775529 43.4434619 -13.51657453 34.53324259 -10.04592896 25.62271118 C-8.38603469 21.36126817 -6.72441935 17.10049731 -5.0625 12.83984375 C-4.77995865 12.11480652 -4.4974173 11.38976929 -4.20631409 10.64276123 C-2.82013349 7.0884302 -1.41692212 3.5423053 0 0 Z M7 19 C3.60395991 26.3600883 0.65312329 33.87165688 -2.25 41.4375 C-2.70890625 42.62021484 -3.1678125 43.80292969 -3.640625 45.02148438 C-4.07375 46.14748047 -4.506875 47.27347656 -4.953125 48.43359375 C-5.34661133 49.45509521 -5.74009766 50.47659668 -6.14550781 51.52905273 C-7.1089417 53.87927423 -7.1089417 53.87927423 -7 56 C2.57 56 12.14 56 22 56 C20.49017694 51.85503586 18.97914711 47.71055175 17.46508789 43.56713867 C16.9513654 42.1601681 16.43833157 40.75294588 15.92602539 39.34545898 C15.18560863 37.31165599 14.44264392 35.27879871 13.69921875 33.24609375 C13.25408936 32.02591553 12.80895996 30.8057373 12.3503418 29.54858398 C10.99323178 25.98221369 9.52739559 22.49595164 8 19 C7.67 19 7.34 19 7 19 Z " fill="#FFFFFF" transform="translate(905,202)"/>
<path d="M0 0 C4.62 0 9.24 0 14 0 C14.01981934 1.79026611 14.03963867 3.58053223 14.06005859 5.42504883 C14.1281874 11.38024992 14.20498709 17.33528794 14.28752708 23.29030323 C14.3371968 26.89621547 14.38352587 30.50210249 14.421875 34.1081543 C14.45910277 37.59666059 14.50555661 41.08493934 14.55806351 44.57324791 C14.58525987 46.53319644 14.60321861 48.49326627 14.62094116 50.45332336 C14.84916243 67.05945794 14.84916243 67.05945794 23 81 C29.30075574 85.6163953 36.45422726 85.82354955 44 85 C49.56363092 83.95623674 53.26846943 81.62733889 56.65385437 77.0688324 C61.8707641 69.05119179 61.47154478 59.90377849 61.51171875 50.68359375 C61.52859316 49.21670557 61.54674705 47.7498316 61.56611633 46.28297424 C61.61332335 42.45100347 61.643321 38.61909034 61.66955566 34.78692627 C61.69951039 30.86499652 61.74598887 26.94326491 61.79101562 23.02148438 C61.87671483 15.34773835 61.94267683 7.67402008 62 0 C66.62 0 71.24 0 76 0 C76.0680254 8.82376658 76.1229592 17.64735638 76.15543652 26.47132683 C76.17103121 30.56952606 76.19215479 34.66753516 76.22631836 38.765625 C76.25913478 42.72732513 76.2768995 46.68884343 76.28463173 50.6506691 C76.29013556 52.15520206 76.30088221 53.65972611 76.31719017 55.16418076 C76.45017386 67.9515556 75.2725994 79.2181595 66.21484375 88.91015625 C56.74307385 97.77934835 46.57586465 99.41953663 34.015625 99.2109375 C24.43502005 98.84864572 16.44465782 95.12520085 9.46875 88.55859375 C-0.38626953 77.53178836 -0.30356188 63.73261483 -0.1953125 49.70703125 C-0.19157278 48.26543882 -0.18873035 46.82384382 -0.18673706 45.38224792 C-0.17917596 41.62581102 -0.15959415 37.86953386 -0.1373291 34.11315918 C-0.11670658 30.26491455 -0.10770061 26.41664358 -0.09765625 22.56835938 C-0.07633945 15.04549236 -0.04122076 7.52278911 0 0 Z " fill="#FFFFFF" transform="translate(364,31)"/>
<path d="M0 0 C2.55015564 1.82862854 2.55015564 1.82862854 4.92553711 4.24438477 C5.82594223 5.14524307 6.72634735 6.04610138 7.65403748 6.97425842 C8.61213481 7.9629894 9.56989588 8.95204634 10.52734375 9.94140625 C11.5249308 10.95019461 12.52385886 11.95765844 13.52406311 12.96385193 C16.14321478 15.60582821 18.74384153 18.26532337 21.34094238 20.92895508 C23.99818316 23.64775591 26.67265567 26.34948878 29.34570312 29.05273438 C34.58075862 34.35198992 39.79635002 39.66988287 45 45 C48.47886818 43.51418105 50.65621883 41.55129136 53.27441406 38.84155273 C54.10918274 37.98403915 54.94395142 37.12652557 55.80401611 36.24302673 C56.69884705 35.31591385 57.59367798 34.38880096 58.515625 33.43359375 C59.45385411 32.47383827 60.39305874 31.51503556 61.33319092 30.55714417 C65.31726417 26.49693685 69.29450324 22.43042892 73.24462891 18.3371582 C75.66549287 15.82982016 78.10336983 13.34014302 80.55290985 10.86082649 C81.92816829 9.459032 83.28440299 8.03865481 84.64019775 6.61802673 C91.65075419 -0.45031084 91.65075419 -0.45031084 96.41308594 -1.21850586 C99.87692081 -1.00749768 100.78650966 -0.86189057 103.4375 1.0625 C106.26147307 4.29973742 107.08890832 5.73240079 107 10 C104.86669022 14.29211234 101.80379252 17.46975519 98.42700195 20.80004883 C97.87061035 21.35673248 97.31421875 21.91341614 96.7409668 22.48696899 C94.91144163 24.31510734 93.07494787 26.1360702 91.23828125 27.95703125 C89.96417846 29.22740161 88.69051822 30.49821597 87.4172821 31.76945496 C84.07291709 35.10620162 80.72258851 38.43689708 77.37097168 41.76635742 C73.94876218 45.16806979 70.53224169 48.57548538 67.11523438 51.98242188 C60.415704 58.66053406 53.70985802 65.33226575 47 72 C43.0374148 70.40062722 40.37249278 67.64808059 37.42114258 64.6640625 C36.87596481 64.12078308 36.33078705 63.57750366 35.76908875 63.01776123 C33.97264991 61.22502001 32.18350073 59.42519252 30.39453125 57.625 C29.14747483 56.37675128 27.90004831 55.12887221 26.65226746 53.88134766 C24.04086474 51.26838191 21.43285347 48.65209341 18.82739258 46.03320312 C15.48320539 42.67200003 12.13244668 39.31744375 8.77936268 35.96511841 C6.20464547 33.39012969 3.63253968 30.81254611 1.06131554 28.23406982 C-0.1736974 26.99586957 -1.40932148 25.75827858 -2.64555931 24.52130127 C-4.36935009 22.79534912 -6.08981153 21.06614849 -7.80932617 19.3359375 C-8.32308807 18.82262878 -8.83684998 18.30932007 -9.36618042 17.78045654 C-12.47220337 14.64605416 -13.87087 13.14064832 -14.375 8.6875 C-14 5 -14 5 -11.625 2.125 C-7.33237826 -1.3499795 -5.41707258 -1.21756707 0 0 Z " fill="#FDBA31" transform="translate(119,259)"/>
<path d="M0 0 C7.44848631 5.27859838 13.72516371 12.59660478 20.15625 19.05859375 C21.31044894 20.21466163 22.46487172 21.37050606 23.61950684 22.52613831 C26.63341408 25.5438333 29.64430403 28.56452087 32.65454102 31.58587646 C35.73660074 34.67823147 38.82155233 37.76769868 41.90625 40.85742188 C47.94030804 46.90215112 53.97117643 52.95005006 60 59 C58.39203202 62.9806103 55.61665151 65.68590798 52.63574219 68.6706543 C52.08913437 69.22558563 51.54252655 69.78051697 50.97935486 70.3522644 C49.17396147 72.18171854 47.36103035 74.00345544 45.546875 75.82421875 C44.28607694 77.09398459 43.0253562 78.36382721 41.76470947 79.63374329 C39.12208731 82.29284626 36.47511026 84.94753125 33.82568359 87.59985352 C30.43316465 90.99776177 27.05710156 94.41153258 23.68479538 97.82948589 C21.08698412 100.45704704 18.47798414 103.07327606 15.8657608 105.68650246 C14.61614858 106.94031938 13.37065591 108.19825619 12.12941742 109.46036339 C10.39184196 111.22481445 8.63913206 112.97274819 6.88183594 114.7175293 C6.11941841 115.50219826 6.11941841 115.50219826 5.34159851 116.30271912 C2.04645785 119.53151972 -0.36700068 120.84179177 -5 121 C-8.60361014 119.40770715 -11.26127033 117.57405542 -13 114 C-13.24761387 109.50320602 -12.88755536 107.1827989 -10.15939331 103.54711914 C-7.54235034 100.73148963 -4.82716912 98.03939081 -2.05859375 95.375 C-1.04958751 94.37906478 -0.042127 93.38156133 0.96385193 92.38256836 C3.60368774 89.76933969 6.26386179 87.17782443 8.92895508 84.59039307 C11.64957852 81.94163783 14.35026284 79.2727192 17.05273438 76.60546875 C22.3492662 71.38379849 27.66746427 66.18492378 33 61 C31.51314229 57.52069225 29.54657686 55.33414282 26.84155273 52.7097168 C25.98403915 51.87172043 25.12652557 51.03372406 24.24302673 50.17033386 C23.31591385 49.27236588 22.38880096 48.37439789 21.43359375 47.44921875 C20.47391004 46.50851835 19.51510621 45.56691954 18.55714417 44.62446594 C14.49602268 40.63037203 10.4269905 36.64463738 6.3371582 32.67993164 C3.83206989 30.25034809 1.34201383 27.8061895 -1.13917351 25.35221291 C-2.54264542 23.97257606 -3.96220509 22.60936654 -5.38197327 21.24650574 C-12.44895437 14.23666992 -12.44895437 14.23666992 -13.16381836 10.05395508 C-12.97052091 6.45044124 -12.29662245 4.77178572 -10 2 C-6.76029221 -0.3459953 -3.90928025 -0.6766062 0 0 Z " fill="#FDBA31" transform="translate(271,105)"/>
<path d="M0 0 C3.39588716 1.94949078 5.39482873 3.13207253 6.61010742 6.88316345 C6.95508104 10.89091975 6.5351534 13.23174459 4.20410156 16.57815552 C1.55622592 19.48732241 -1.21667384 22.22955581 -4.0625 24.94140625 C-5.09578794 25.95788939 -6.12709282 26.97639195 -7.15649414 27.99681091 C-9.85951525 30.66561478 -12.58845551 33.30627796 -15.32385254 35.9418335 C-18.11500062 38.64059378 -20.88056211 41.36530285 -23.6484375 44.08789062 C-29.07435222 49.41754146 -34.52793297 54.71770155 -40 60 C-35.23269526 65.77634732 -30.0524449 70.95714069 -24.6640625 76.15234375 C-22.85962751 77.91494177 -21.05627352 79.67864702 -19.25390625 81.44335938 C-16.43238852 84.2030471 -13.60565745 86.95609252 -10.76025391 89.69116211 C-8.00120315 92.34731286 -5.26843339 95.02824759 -2.5390625 97.71484375 C-1.25486923 98.93239601 -1.25486923 98.93239601 0.05526733 100.17454529 C6.51432717 106.60193286 6.51432717 106.60193286 6.66650391 111.39672852 C5.83710193 115.88066394 4.6848752 117.35650257 1 120 C-2.42832955 121.14277652 -4.06966464 121.46377841 -7.32974243 119.83860779 C-10.43768148 117.6986341 -13.06458642 115.23832506 -15.72412109 112.58227539 C-16.27265747 112.04206253 -16.82119385 111.50184967 -17.38635254 110.94526672 C-19.18748011 109.16812561 -20.9809574 107.38351653 -22.7734375 105.59765625 C-24.02414576 104.35591707 -25.27493016 103.11425457 -26.52578735 101.87266541 C-29.14021626 99.27469392 -31.75024835 96.67238966 -34.35791016 94.06762695 C-37.70555098 90.72539213 -41.069083 87.39964595 -44.43671227 84.07756901 C-47.02211775 81.52183565 -49.59626651 78.95499188 -52.16737747 76.38488579 C-53.40331538 75.15316331 -54.64338894 73.92557656 -55.88758469 72.70219612 C-57.62113546 70.99537763 -59.33831677 69.27360843 -61.05224609 67.54711914 C-61.5716275 67.04257202 -62.09100891 66.5380249 -62.62612915 66.01818848 C-65.95615523 62.61787763 -65.95615523 62.61787763 -66.14137268 60.00772095 C-64.437642 57.01078942 -62.12441291 54.72526704 -59.68579102 52.3293457 C-59.13290405 51.77441437 -58.58001709 51.21948303 -58.01037598 50.6477356 C-56.18205788 48.81641079 -54.34322608 46.99605073 -52.50390625 45.17578125 C-51.23159044 43.90652308 -49.95986457 42.6366733 -48.68870544 41.36625671 C-46.02413514 38.70628865 -43.35472938 36.05130736 -40.68139648 33.40014648 C-37.25007222 29.99713314 -33.82751113 26.58547567 -30.40808201 23.17051411 C-27.78268237 20.5492655 -25.15446315 17.93086067 -22.52519035 15.31349754 C-21.2620062 14.05602072 -19.99929597 12.79806766 -18.73706245 11.53963661 C-16.97517718 9.78460508 -15.20995258 8.03300814 -13.44360352 6.2824707 C-12.91937302 5.75935806 -12.39514252 5.23624542 -11.85502625 4.69728088 C-7.83181322 0.72183788 -5.76885517 -0.66563713 0 0 Z " fill="#FDBA31" transform="translate(66,105)"/>
<path d="M0 0 C3.01714683 1.64673467 5.29945786 3.93319214 7.70529175 6.34535217 C8.26022308 6.89020767 8.81515442 7.43506317 9.38690186 7.99642944 C11.21892235 9.79995448 13.03941867 11.61458866 14.8588562 13.43080139 C16.12847577 14.69078052 17.3983205 15.95053282 18.66838074 17.21006775 C21.32912943 19.85285072 23.9835994 22.50176582 26.63449097 25.1544342 C30.02902416 28.54927215 33.44371187 31.9230135 36.86412334 35.29174995 C39.49353674 37.88777328 42.10916662 40.49735313 44.72113991 43.11091232 C45.97421199 44.36044818 47.23214294 45.60513128 48.49500084 46.84477615 C50.26200701 48.58231954 52.00890561 50.3379358 53.75216675 52.09925842 C54.53683571 52.8586396 54.53683571 52.8586396 55.33735657 53.63336182 C58.87524179 57.26493134 59.94892655 60.05666689 60.03463745 65.11048889 C57.09792859 70.57884332 57.09792859 70.57884332 54.03463745 72.11048889 C50.73393331 72.77249981 49.20736906 72.98018488 46.03463745 72.11048889 C41.98658776 69.20458308 38.62740366 65.63459407 35.19088745 62.04798889 C34.17275151 61.0149185 33.15282466 59.98361032 32.13119507 58.95399475 C29.45649461 56.24885513 26.80669479 53.52056292 24.16146851 50.78663635 C21.45421014 47.99730907 18.72395288 45.23069616 15.99557495 42.46205139 C10.65256655 37.03343245 5.33567415 31.58013412 0.03463745 26.11048889 C-5.6663724 30.84572533 -10.89822541 35.92750333 -16.1098938 41.19252014 C-16.96089157 42.04730453 -17.81188934 42.90208893 -18.68867493 43.78277588 C-21.38751392 46.49376364 -24.08307683 49.20797242 -26.77786255 51.92298889 C-30.34403287 55.51567115 -33.91344306 59.10508795 -37.4848938 62.69252014 C-38.30568924 63.52161392 -39.12648468 64.3507077 -39.97215271 65.20492554 C-40.73021713 65.96629318 -41.48828156 66.72766083 -42.26931763 67.51210022 C-42.93659378 68.18461319 -43.60386993 68.85712616 -44.29136658 69.55001831 C-47.2446914 72.3030575 -49.90567098 72.57186019 -53.9223938 72.52064514 C-55.96536255 72.11048889 -55.96536255 72.11048889 -58.96536255 69.48548889 C-61.99027358 64.38095153 -61.99027358 64.38095153 -60.96536255 60.11048889 C-55.58643236 52.73030562 -48.46958815 46.39850661 -42.0473938 39.91908264 C-41.48511267 39.35147783 -40.92283154 38.78387302 -40.34351158 38.19906807 C-37.37891728 35.20796305 -34.41080868 32.22039191 -31.44021606 29.23524475 C-28.98623202 26.76782006 -26.53976387 24.29328418 -24.09939575 21.81239319 C-21.13918528 18.80305924 -18.16706726 15.80600468 -15.18576622 12.81756783 C-14.05437628 11.67945105 -12.9272568 10.53707264 -11.80451393 9.39042473 C-10.24171911 7.79621064 -8.6641016 6.21828633 -7.08181763 4.64344788 C-6.18803909 3.74158249 -5.29426056 2.8397171 -4.37339783 1.91052246 C-1.96536255 0.11048889 -1.96536255 0.11048889 0 0 Z " fill="#FDBA31" transform="translate(165.96536254882813,-0.1104888916015625)"/>
<path d="M0 0 C17.49 0 34.98 0 53 0 C53 4.29 53 8.58 53 13 C40.13 13 27.26 13 14 13 C14 21.91 14 30.82 14 40 C23.9 40 33.8 40 44 40 C44.66 44.29 45.32 48.58 46 53 C35.44 53 24.88 53 14 53 C14 63.23 14 73.46 14 84 C27.2 84 40.4 84 54 84 C54 88.29 54 92.58 54 97 C36.18 97 18.36 97 0 97 C0 64.99 0 32.98 0 0 Z " fill="#FFFFFF" transform="translate(755,31)"/>
<path d="M0 0 C9.85993509 25.59534606 19.47141154 51.27962913 29 77 C34.49406682 63.4929227 39.67418985 49.90227019 44.625 36.1875 C48.8942944 24.37367125 53.2641019 12.63573732 58 1 C62.95 1 67.9 1 73 1 C71.00433555 7.92542154 68.71474311 14.61937967 66.078125 21.32421875 C65.51213341 22.77778275 65.51213341 22.77778275 64.93470764 24.26071167 C63.70990768 27.40432686 62.4799239 30.54588646 61.25 33.6875 C59.97087213 36.967458 58.69314659 40.24796009 57.41548157 43.52848816 C56.55092058 45.74807058 55.68591848 47.96748124 54.82048035 50.1867218 C50.61806569 60.96595827 46.45981085 71.76196541 42.3125 82.5625 C41.66506119 84.24764848 41.01760094 85.93278871 40.37011719 87.61791992 C38.91266198 91.41165922 37.45603484 95.20571535 36 99 C31.71 99 27.42 99 23 99 C19.69695833 91.86430592 16.62354713 84.70895539 13.8125 77.3671875 C13.43253372 76.38329041 13.05256744 75.39939331 12.66108704 74.38568115 C11.43776268 71.21658711 10.21879559 68.04583816 9 64.875 C7.30763179 60.4837406 5.61310001 56.09331845 3.91796875 51.703125 C3.49944138 50.61846954 3.080914 49.53381409 2.64970398 48.41629028 C0.08574508 41.78043022 -2.50720987 35.15702478 -5.13671875 28.546875 C-5.44553986 27.7695401 -5.75436096 26.9922052 -6.07254028 26.1913147 C-7.48898034 22.62857909 -8.91126505 19.06833014 -10.34179688 15.51123047 C-10.83611724 14.27057941 -11.33026932 13.02986129 -11.82421875 11.7890625 C-12.45976685 10.20665771 -12.45976685 10.20665771 -13.1081543 8.59228516 C-14 6 -14 6 -14 3 C-12.23050388 2.49528803 -10.45934777 1.99639315 -8.6875 1.5 C-7.70136719 1.2215625 -6.71523438 0.943125 -5.69921875 0.65625 C-3 0 -3 0 0 0 Z " fill="#FFFFFF" transform="translate(654,30)"/>
<path d="M0 0 C0.91845703 0.00539795 1.83691406 0.0107959 2.78320312 0.01635742 C12.19083658 0.2263196 19.70276215 2.46129731 27.6875 7.4375 C27.57373383 9.56313103 27.44614369 11.6880261 27.3125 13.8125 C27.24289062 14.99585938 27.17328125 16.17921875 27.1015625 17.3984375 C26.6875 20.4375 26.6875 20.4375 24.6875 22.4375 C23.60082031 21.82261719 23.60082031 21.82261719 22.4921875 21.1953125 C21.52539062 20.65648437 20.55859375 20.11765625 19.5625 19.5625 C18.61117188 19.02882812 17.65984375 18.49515625 16.6796875 17.9453125 C8.28773109 13.71646763 -0.58792994 13.19104542 -9.8203125 14.90234375 C-17.64801944 17.49623095 -22.42235558 22.88686137 -26.26953125 29.8984375 C-31.20782819 41.92050871 -31.4405391 57.91605498 -26.56640625 69.95703125 C-22.69772878 77.6100225 -18.27936279 82.06244722 -10.3125 85.4375 C-0.66346919 88.53471977 9.67475324 86.44316523 18.6875 82.4375 C20.79195013 81.20643827 22.70427396 79.86135459 24.6875 78.4375 C25.6775 78.4375 26.6675 78.4375 27.6875 78.4375 C28.3475 82.7275 29.0075 87.0175 29.6875 91.4375 C16.32226249 100.15395925 2.11182185 103.0005594 -13.6640625 99.74609375 C-24.48155556 96.10471228 -33.39776401 89.40103959 -39.0078125 79.421875 C-47.39812788 62.31698085 -47.28284029 44.25096628 -41.3125 26.4375 C-36.65792736 15.25047542 -28.50636375 7.26989675 -17.34985352 2.61938477 C-11.51364651 0.4503631 -6.19683494 -0.06990193 0 0 Z " fill="#FFFFFF" transform="translate(1131.3125,200.5625)"/>
<path d="M0 0 C0.92748047 0.00088623 1.85496094 0.00177246 2.81054688 0.00268555 C12.27684456 0.16558393 19.77650346 2.36685215 27.8125 7.375 C27.67066304 9.12532844 27.52386571 10.87525534 27.375 12.625 C27.25318359 14.08679688 27.25318359 14.08679688 27.12890625 15.578125 C26.86175416 17.93961753 26.45878032 20.09401065 25.8125 22.375 C25.26722656 22.09785156 24.72195313 21.82070312 24.16015625 21.53515625 C21.54519212 20.24290276 18.90414737 19.02221343 16.25 17.8125 C15.29996094 17.37808594 14.34992188 16.94367188 13.37109375 16.49609375 C5.94480596 13.24213253 -3.38650735 13.05101491 -11.21875 15.2109375 C-18.221948 18.43154399 -23.37451751 23.218406 -26.46875 30.3125 C-31.27070857 44.03238162 -31.5291962 57.41738579 -26.12109375 71.06640625 C-22.54229424 78.04683698 -17.1814014 83.4517073 -9.609375 85.90234375 C1.85230714 88.13922043 11.86986229 85.93698029 21.8125 80.125 C24.8125 78.375 24.8125 78.375 27.8125 78.375 C28.76511487 83.13807437 28.89583357 87.5416528 28.8125 92.375 C26.98465398 93.34375839 25.14989059 94.29946873 23.3125 95.25 C22.2915625 95.78367187 21.270625 96.31734375 20.21875 96.8671875 C8.97912043 101.84252811 -5.13921868 102.33800958 -16.875 98.75 C-27.73632262 94.41453464 -36.40395546 86.11287685 -41.0625 75.375 C-47.30951386 59.64825181 -47.4165382 41.11345746 -41.1875 25.375 C-35.40291379 13.53608004 -26.44202181 5.58789059 -14.08203125 1.296875 C-9.42872142 0.01239335 -4.80131717 -0.0082096 0 0 Z " fill="#FFFFFF" transform="translate(1364.1875,200.625)"/>
<path d="M0 0 C-0.66 4.62 -1.32 9.24 -2 14 C-7 12 -7 12 -9.25390625 10.9296875 C-15.81629181 7.93164334 -21.81784622 6.9547586 -29 8 C-32.7684539 9.49137654 -34.74270163 11.61405245 -37 15 C-37.79567878 19.47255228 -37.75331025 22.92025531 -35.125 26.6875 C-28.77983028 31.3829256 -22.13339403 34.95149933 -15 38.3125 C-7.47790597 42.03663379 0.49303653 46.79984954 4.125 54.75 C6.41533499 63.02156953 5.93653327 72.01122128 2.31640625 79.78125 C-2.04140165 87.12616064 -7.8886789 90.6681519 -16 93 C-28.01939086 95.59923466 -42.03407119 93.48296441 -53 88 C-52.67 83.38 -52.34 78.76 -52 74 C-47.80246074 74 -45.78485136 74.76743434 -42 76.4375 C-33.66894919 80.09274854 -25.42876633 81.74496061 -16.5 78.875 C-12.95610586 76.2170794 -10.41005794 73.56798783 -9.6875 69.04296875 C-9.55581489 64.73851156 -10.13127984 60.92431234 -12 57 C-13.70356166 55.97381544 -13.70356166 55.97381544 -16 55 C-46.5012137 40.05852708 -46.5012137 40.05852708 -51.12109375 30.73828125 C-53.4515476 23.4776228 -53.1378599 14.38939163 -50 7.4375 C-45.89617026 0.55586908 -40.76962228 -2.74549675 -33.125 -4.875 C-21.37529489 -7.34862213 -10.41730903 -6.25038542 0 0 Z " fill="#FFFFFF" transform="translate(1292,207)"/>
<path d="M0 0 C-0.11376617 2.12563103 -0.24135631 4.2505261 -0.375 6.375 C-0.44460938 7.55835938 -0.51421875 8.74171875 -0.5859375 9.9609375 C-1 13 -1 13 -3 15 C-3.68707031 14.65066406 -4.37414062 14.30132812 -5.08203125 13.94140625 C-5.98308594 13.48636719 -6.88414062 13.03132813 -7.8125 12.5625 C-8.70582031 12.11003906 -9.59914063 11.65757812 -10.51953125 11.19140625 C-17.11720022 8.02244714 -24.64586852 7.88195617 -31.5625 10.1875 C-34.46897371 12.34872404 -35.73659016 13.58136162 -37 17 C-37.30796368 20.26683041 -37.28518231 22.966372 -36 26 C-31.34522766 31.23860622 -25.37540552 34.03267913 -19.125 36.9375 C-0.94807906 45.72235177 -0.94807906 45.72235177 4 55 C6.54865347 62.59359083 6.30820714 73.34250375 3 80.625 C-1.11523228 87.54184521 -7.50126345 91.40952737 -15 94 C-27.6052287 96.28080133 -41.46677312 94.76661344 -53 89 C-52.85816304 87.24967156 -52.71136571 85.49974466 -52.5625 83.75 C-52.48128906 82.77546875 -52.40007812 81.8009375 -52.31640625 80.796875 C-52.04925416 78.43538247 -51.64628032 76.28098935 -51 74 C-48.48477674 75.0033896 -45.97188896 76.01147831 -43.46484375 77.03515625 C-42.21380859 77.54369141 -42.21380859 77.54369141 -40.9375 78.0625 C-39.68259766 78.57490234 -39.68259766 78.57490234 -38.40234375 79.09765625 C-31.36510334 81.7409124 -23.38997059 82.40274645 -16.375 79.5 C-15.59125 79.005 -14.8075 78.51 -14 78 C-13.34 78 -12.68 78 -12 78 C-9.51805755 73.3463579 -9.0870503 68.14501315 -10 63 C-13.03986499 56.2277564 -18.8059792 54.10477288 -25.25 51 C-46.2186758 40.74271146 -46.2186758 40.74271146 -51.3125 30.3125 C-53.09831281 21.7081292 -52.63944378 13.62844117 -48 6 C-35.77439412 -8.08198855 -15.78364556 -7.54870005 0 0 Z " fill="#FFFFFF" transform="translate(414,206)"/>
<path d="M0 0 C-0.1141866 1.93816735 -0.24173423 3.87555099 -0.375 5.8125 C-0.44460938 6.89144531 -0.51421875 7.97039063 -0.5859375 9.08203125 C-1 12 -1 12 -3 15 C-3.76183594 14.57847656 -4.52367187 14.15695313 -5.30859375 13.72265625 C-13.48354235 9.38513671 -19.76114511 6.50557027 -28.875 9.25 C-31.93618573 10.3252552 -33.98696485 11.41700911 -36 14 C-37.17745019 17.97948356 -37.41112715 21.73725234 -36.125 25.6875 C-30.83588601 31.44330052 -23.86315391 34.62342427 -16.9375 38 C-8.0644557 42.3423893 -1.31965421 46.45631293 4 55 C6.31702058 61.95106173 6.53696976 73.00201691 3.3125 79.75 C-1.6966252 86.78985163 -7.5525893 91.76335603 -16 94 C-19.35750424 94.33300886 -22.69006795 94.38043648 -26.0625 94.375 C-26.99046387 94.37483887 -27.91842773 94.37467773 -28.87451172 94.37451172 C-37.57579508 94.23082635 -45.61818181 92.92121213 -53 88 C-52.85866501 86.22880197 -52.71176792 84.45804713 -52.5625 82.6875 C-52.48128906 81.70136719 -52.40007813 80.71523437 -52.31640625 79.69921875 C-52 77 -52 77 -51 74 C-46.35122273 75.46803493 -41.86973062 77.23912989 -37.3671875 79.09765625 C-30.94325966 81.54638122 -23.66815258 82.31387798 -17.125 79.8125 C-13.57101103 77.7511864 -11.90629773 76.66009163 -10 73 C-9.11626891 67.53920884 -8.93004243 63.61001205 -12.05859375 58.90234375 C-15.08694518 55.57056539 -18.5724558 53.84110238 -22.625 52 C-24.05394741 51.31497315 -25.48233117 50.62876933 -26.91015625 49.94140625 C-27.60641113 49.61156738 -28.30266602 49.28172852 -29.02001953 48.94189453 C-46.8216996 40.47347509 -46.8216996 40.47347509 -50.9375 31.3125 C-53.37891033 23.43895169 -52.97654125 15.22291557 -49.1953125 7.8984375 C-45.18739891 1.53292769 -38.48952505 -2.86511285 -31.19921875 -4.68359375 C-20.39850575 -6.23751516 -9.69616618 -5.13852125 0 0 Z " fill="#FFFFFF" transform="translate(989,35)"/>
<path d="M0 0 C16.83 0 33.66 0 51 0 C51 4.29 51 8.58 51 13 C39.12 13 27.24 13 15 13 C15 22.57 15 32.14 15 42 C24.57 42 34.14 42 44 42 C44.495 48.435 44.495 48.435 45 55 C35.1 55 25.2 55 15 55 C15 69.19 15 83.38 15 98 C10.05 98 5.1 98 0 98 C0 65.66 0 33.32 0 0 Z " fill="#FFFFFF" transform="translate(706,202)"/>
<path d="M0 0 C16.83 0 33.66 0 51 0 C51 4.29 51 8.58 51 13 C39.12 13 27.24 13 15 13 C15 22.57 15 32.14 15 42 C24.57 42 34.14 42 44 42 C44.66 45.96 45.32 49.92 46 54 C35.77 54 25.54 54 15 54 C15 68.19 15 82.38 15 97 C10.05 97 5.1 97 0 97 C0 64.99 0 32.98 0 0 Z " fill="#FFFFFF" transform="translate(1449,31)"/>
<path d="M0 0 C0.4640625 0.84175781 0.928125 1.68351562 1.40625 2.55078125 C7.29918348 13.16216196 13.46758165 23.60489946 19.67773438 34.0324707 C20.35126953 35.16386475 21.02480469 36.29525879 21.71875 37.4609375 C22.32654297 38.47978027 22.93433594 39.49862305 23.56054688 40.54833984 C24.41727133 42.00750317 25.24327886 43.48655772 26 45 C30.92521788 37.90108261 35.23669339 30.51030983 39.5 23 C41.39187364 19.66724482 43.29070137 16.34066431 45.22607422 13.03295898 C46.35356051 11.10524605 47.45715218 9.16320259 48.52783203 7.20336914 C49.88226053 4.88413288 51.11263279 2.91029784 53 1 C56.23176821 0.26550723 57.75987436 0.08433169 60.875 0.4375 C61.56335937 0.47810547 62.25171875 0.51871094 62.9609375 0.56054688 C64.64371683 0.66572058 66.32281952 0.82716079 68 1 C66.69468189 5.36386156 65.00251639 8.96004154 62.61328125 12.83203125 C61.92878906 13.94626465 61.24429687 15.06049805 60.5390625 16.20849609 C60.17586914 16.79459656 59.81267578 17.38069702 59.43847656 17.98455811 C58.28975479 19.84942521 57.16054531 21.7249761 56.03515625 23.60400391 C52.42382813 29.6064279 48.7565579 35.43702098 44.57421875 41.06640625 C31.58493335 59.19538077 31.97942674 76.4248427 33 98 C28.38 98 23.76 98 19 98 C19.06396973 96.97567871 19.12793945 95.95135742 19.19384766 94.89599609 C20.57580483 69.50038654 17.35892518 53.08951686 2.4609375 32.5 C-1.62715224 26.78888721 -5.07916303 20.68041197 -8.625 14.625 C-9.864635 12.55315814 -11.10655241 10.48267883 -12.3515625 8.4140625 C-13.234375 6.94270833 -14.1171875 5.47135417 -15 4 C-12.61357615 1.61357615 -11.33221616 1.47996951 -8.0625 0.875 C-7.18722656 0.70742188 -6.31195312 0.53984375 -5.41015625 0.3671875 C-3 0 -3 0 0 0 Z " fill="#FFFFFF" transform="translate(1185,30)"/>
<path d="M0 0 C24.42 0 48.84 0 74 0 C74.99 6.435 74.99 6.435 76 13 C65.44 13 54.88 13 44 13 C44 40.72 44 68.44 44 97 C39.38 97 34.76 97 30 97 C30 69.28 30 41.56 30 13 C20.1 13 10.2 13 0 13 C0 8.71 0 4.42 0 0 Z " fill="#FFFFFF" transform="translate(1075,31)"/>
<path d="M0 0 C4.62 0 9.24 0 14 0 C14 32.34 14 64.68 14 98 C9.38 98 4.76 98 0 98 C0 65.66 0 33.32 0 0 Z " fill="#FFFFFF" transform="translate(1193,202)"/>
<path d="M0 0 C4.62 0 9.24 0 14 0 C14 32.01 14 64.02 14 97 C9.38 97 4.76 97 0 97 C0 64.99 0 32.98 0 0 Z " fill="#FFFFFF" transform="translate(1030,31)"/>
<path d="M0 0 C4.62 0 9.24 0 14 0 C14 32.01 14 64.02 14 97 C9.38 97 4.76 97 0 97 C0 64.99 0 32.98 0 0 Z " fill="#FFFFFF" transform="translate(595,31)"/>
</svg>
